<?xml version="1.0" standalone="no"?>
<!DOCTYPE svg PUBLIC "-//W3C//DTD SVG 20010904//EN"
 "http://www.w3.org/TR/2001/REC-SVG-20010904/DTD/svg10.dtd">
<svg version="1.0" xmlns="http://www.w3.org/2000/svg"
 width="2193.000000pt" height="2142.000000pt" viewBox="0 0 2193.000000 2142.000000"
 preserveAspectRatio="xMidYMid meet">

<g transform="translate(0.000000,2142.000000) scale(0.100000,-0.100000)"
fill="#000000" stroke="none">
<path d="M11745 21374 c-60 -54 -152 -101 -217 -110 -66 -9 -162 11 -243 51
l-68 33 -83 -87 c-47 -50 -105 -99 -135 -115 -63 -35 -270 -81 -349 -78 -30 1
-262 23 -515 48 -397 40 -479 45 -600 40 -257 -10 -499 -89 -723 -236 -39 -27
-69 -43 -65 -37 4 7 67 106 141 220 74 115 132 211 129 213 -2 3 -24 -12 -48
-32 -70 -59 -202 -142 -292 -183 -236 -109 -451 -158 -792 -180 -173 -11 -270
-29 -411 -76 -264 -88 -520 -248 -754 -472 -61 -58 -110 -101 -110 -97 0 5 9
98 21 207 11 109 19 200 17 203 -3 2 -58 -28 -124 -68 -243 -146 -540 -277
-903 -397 -230 -76 -358 -136 -512 -239 -195 -131 -423 -343 -583 -542 l-69
-85 7 120 c4 66 9 154 13 195 l6 75 -94 -86 c-260 -238 -553 -429 -834 -544
-239 -98 -370 -193 -515 -370 -126 -154 -260 -399 -339 -620 -22 -60 -40 -103
-41 -95 -1 37 -40 353 -43 356 -2 2 -14 -22 -27 -54 -13 -31 -48 -106 -78
-167 -165 -334 -363 -576 -602 -738 -93 -63 -199 -163 -255 -242 -117 -164
-202 -407 -223 -640 l-7 -80 -29 213 c-16 117 -30 211 -32 210 -1 -2 -10 -59
-19 -128 -30 -237 -100 -490 -171 -620 -61 -111 -141 -206 -374 -445 -208
-212 -229 -237 -272 -321 -26 -49 -58 -129 -72 -176 -75 -259 -84 -648 -26
-1062 11 -77 18 -141 16 -143 -2 -2 -52 64 -112 147 -60 82 -112 150 -115 150
-3 0 -9 -30 -13 -67 -12 -122 -106 -772 -157 -1093 -48 -296 -51 -323 -45
-445 10 -240 65 -468 193 -795 50 -127 199 -440 256 -539 20 -34 37 -64 37
-66 0 -2 -90 46 -201 107 -110 60 -202 108 -204 106 -2 -2 19 -69 46 -148 107
-308 214 -728 274 -1075 44 -255 81 -368 186 -575 123 -244 298 -484 516 -711
l115 -118 -49 14 c-26 8 -96 30 -155 49 -60 18 -108 31 -108 29 0 -3 37 -73
82 -157 45 -83 200 -386 345 -674 144 -287 281 -555 304 -595 241 -414 523
-677 1064 -991 258 -151 474 -280 471 -283 -1 -1 -127 -12 -280 -23 l-278 -20
-672 -502 c-369 -276 -801 -598 -959 -716 -158 -118 -286 -218 -285 -223 5
-12 239 -296 338 -409 623 -711 1324 -1354 2065 -1893 2545 -1852 5668 -2705
8840 -2416 1391 127 2772 485 4065 1054 251 110 801 384 1040 518 1409 788
2620 1798 3623 3020 53 65 97 123 97 128 0 5 -383 296 -851 646 -747 558 -850
638 -844 657 3 12 9 40 12 64 l6 42 60 0 c68 0 135 26 166 66 16 20 28 24 70
24 81 0 164 54 190 123 26 68 -2 177 -54 211 -20 13 -23 21 -18 53 4 23 19 53
39 75 33 37 54 91 54 138 -1 39 -33 102 -71 135 -41 37 -75 121 -52 129 27 11
168 6 259 -9 75 -12 182 -40 239 -62 9 -3 17 13 25 54 19 88 76 246 127 347
123 245 239 367 410 432 81 31 196 53 276 54 31 0 57 1 57 3 0 1 20 139 44
306 42 287 47 306 78 360 41 69 260 291 388 393 71 56 300 224 317 232 1 1
-11 28 -27 61 -94 198 -118 555 -52 805 42 161 90 287 189 492 84 173 92 201
58 214 -32 13 -560 -211 -717 -303 l-88 -52 0 37 c1 131 112 341 268 504 112
117 210 177 315 193 20 3 37 8 37 11 0 2 -11 21 -24 42 -106 162 -6 387 193
435 49 11 51 13 51 47 0 34 -1 35 -61 53 -85 25 -140 82 -168 172 -65 208 33
465 204 536 30 12 55 26 55 29 0 4 -18 20 -41 35 -61 43 -134 127 -168 195
-84 170 -78 393 19 606 l29 65 -27 10 c-61 21 -110 45 -175 83 -56 34 -64 42
-50 49 29 16 74 60 89 89 22 43 18 136 -9 184 l-24 40 33 38 c78 90 62 219
-37 291 -18 14 -50 28 -70 31 l-36 6 0 57 c0 62 -16 102 -60 143 -33 31 -91
58 -128 58 -28 0 -31 7 -10 34 21 27 28 96 16 144 -22 78 -93 136 -186 149
-39 5 -45 9 -45 30 0 31 -31 92 -62 120 -35 33 -91 53 -147 53 -48 0 -49 1
-66 43 -31 73 -31 183 0 357 48 268 52 240 -59 418 -52 84 -104 181 -116 215
-23 69 -45 319 -35 398 l6 46 -62 12 c-104 21 -224 70 -297 121 -119 84 -183
203 -205 381 -9 77 -15 99 -27 99 -8 0 -25 15 -37 34 -21 33 -93 76 -126 76
-13 0 -17 9 -17 37 0 90 -87 183 -172 183 -34 0 -38 3 -38 25 0 76 -103 165
-192 165 -12 0 -21 13 -29 42 -6 23 -26 57 -44 75 -19 19 -37 47 -40 64 -10
44 -69 105 -121 125 -32 12 -59 15 -98 10 -54 -6 -55 -6 -61 22 -8 40 -59 98
-103 117 -20 10 -46 31 -57 48 -27 42 -97 77 -152 77 l-45 0 7 78 c4 42 8 84
11 92 3 11 -11 21 -47 33 -66 24 -123 82 -162 165 -29 61 -32 76 -32 163 l0
97 -62 5 c-38 3 -78 14 -105 28 -38 22 -50 39 -111 154 -38 72 -70 131 -71
132 -1 2 -37 9 -80 18 -116 22 -202 65 -274 138 -57 59 -60 65 -64 119 -6 72
-42 122 -110 152 -47 21 -48 22 -42 57 12 76 -38 171 -104 198 -27 11 -28 14
-24 70 9 124 -90 217 -223 208 -34 -2 -39 1 -48 28 -13 41 -74 102 -115 116
-50 17 -146 7 -180 -18 l-29 -21 -13 50 c-30 118 -163 180 -276 129 -49 -22
-102 -83 -110 -127 -5 -29 -10 -32 -54 -38 -85 -11 -149 -73 -165 -159 l-7
-37 -92 0 c-235 1 -362 54 -645 268 -71 53 -129 91 -137 88 -28 -11 -26 -37
11 -122 20 -47 35 -88 32 -91 -10 -10 -95 57 -147 114 -60 68 -121 187 -148
293 l-20 75 -93 -4 c-103 -3 -235 17 -324 50 -95 35 -178 127 -204 224 l-10
40 -159 -4 c-268 -5 -364 23 -457 135 l-40 49 -65 -32 c-36 -18 -105 -44 -155
-59 -173 -50 -314 -32 -578 73 -85 34 -89 35 -102 17 -20 -26 -20 -27 26 -63
57 -46 42 -56 -61 -42 -110 15 -150 34 -254 127 -49 43 -102 89 -117 102 l-29
23 -78 -29 c-99 -38 -184 -56 -231 -47 -49 9 -144 63 -216 124 -32 28 -62 51
-65 51 -3 -1 -27 -21 -55 -46z m-1855 -385 c63 -6 201 -12 306 -12 l192 -2
-57 -51 c-188 -170 -436 -358 -646 -491 -307 -194 -811 -433 -945 -448 -187
-20 -417 -66 -595 -120 -242 -74 -369 -131 -595 -268 -197 -120 -383 -228
-449 -262 -36 -18 -58 -23 -84 -18 -29 4 -40 1 -61 -20 -30 -30 -33 -53 -10
-86 15 -21 22 -23 73 -18 92 8 314 112 576 270 309 186 554 278 940 352 160
30 317 38 509 26 281 -18 270 -6 103 -125 -78 -55 -180 -131 -227 -167 -205
-159 -242 -184 -365 -245 -71 -35 -192 -85 -267 -109 -355 -116 -644 -158
-1208 -175 -321 -9 -391 -19 -578 -80 -157 -52 -399 -180 -672 -355 -70 -45
-208 -132 -252 -159 -53 -31 -45 -105 12 -125 35 -12 45 -7 302 157 401 256
584 342 827 392 214 43 341 37 646 -32 99 -22 181 -41 183 -43 1 -1 -13 -10
-31 -19 -97 -45 -269 -175 -447 -335 -202 -182 -552 -331 -860 -366 -30 -3
-107 -16 -170 -27 -102 -19 -155 -22 -475 -23 -368 -1 -468 -8 -660 -46 -223
-44 -330 -96 -510 -246 -71 -60 -211 -174 -310 -253 -99 -79 -211 -169 -250
-199 -38 -31 -87 -69 -108 -84 -54 -41 -73 -72 -59 -102 18 -38 58 -60 87 -47
25 12 524 406 741 587 142 117 212 155 351 191 157 40 304 56 563 61 237 5
556 -8 585 -25 10 -5 -13 -26 -82 -72 -63 -42 -157 -123 -267 -230 -188 -181
-292 -258 -469 -349 -112 -57 -180 -84 -307 -122 -81 -24 -586 -99 -666 -99
-261 0 -593 -100 -772 -232 -138 -102 -200 -180 -294 -370 -119 -241 -237
-387 -360 -447 -59 -30 -75 -33 -140 -31 -94 3 -95 3 -118 -20 -27 -27 -25
-62 6 -91 24 -22 34 -24 123 -24 94 0 100 1 182 42 176 87 310 250 458 554 63
130 137 215 255 294 259 172 672 229 1071 148 l140 -28 -50 -35 c-71 -48 -234
-214 -282 -285 -22 -33 -55 -87 -73 -120 -124 -227 -397 -456 -769 -644 -149
-76 -165 -81 -267 -96 -426 -63 -706 -170 -877 -334 -108 -103 -179 -216 -262
-421 -99 -243 -166 -352 -297 -482 -43 -43 -78 -86 -78 -96 0 -27 48 -72 77
-72 34 0 192 156 259 256 55 83 105 185 188 380 105 249 205 363 411 466 133
67 365 132 570 159 87 11 341 7 376 -6 13 -5 2 -27 -58 -117 -90 -135 -141
-234 -203 -398 -89 -233 -111 -285 -207 -481 l-95 -197 -87 -47 c-47 -27 -106
-60 -131 -73 -89 -49 -287 -167 -395 -235 -371 -236 -555 -384 -682 -552 -72
-95 -159 -283 -192 -415 -43 -169 -51 -264 -51 -580 0 -350 -21 -523 -90 -749
-25 -79 -25 -92 0 -119 26 -27 73 -29 99 -3 33 33 82 223 117 446 13 84 17
189 18 445 2 305 4 344 25 440 43 202 101 335 206 475 121 161 309 303 763
578 78 48 144 87 146 87 3 0 28 14 55 32 28 17 53 29 55 27 2 -2 -14 -33 -36
-69 -58 -94 -125 -236 -143 -305 -22 -84 -35 -218 -35 -368 0 -185 -26 -328
-102 -567 -87 -275 -285 -708 -380 -832 -200 -264 -319 -509 -364 -753 -25
-137 -16 -372 20 -530 29 -126 97 -342 191 -610 79 -223 148 -457 181 -610 30
-137 50 -175 94 -175 29 0 70 44 70 74 0 96 -112 478 -279 954 -192 549 -195
865 -9 1237 95 190 188 309 350 452 l123 107 2 -74 c8 -248 37 -430 98 -602
123 -345 179 -588 205 -898 5 -63 10 -329 10 -590 0 -398 -3 -483 -16 -525
-103 -339 -93 -666 30 -945 72 -163 147 -275 376 -560 222 -277 292 -377 386
-555 68 -126 93 -145 142 -108 47 35 42 69 -28 196 -96 174 -163 269 -370 527
-299 372 -403 559 -445 804 -17 98 -19 248 -6 342 5 33 64 230 132 437 l123
377 53 -143 c73 -195 195 -437 297 -590 147 -218 207 -343 270 -564 63 -218
102 -510 126 -923 23 -412 74 -686 195 -1045 30 -88 51 -163 47 -167 -4 -3
-52 -24 -107 -46 -55 -22 -194 -81 -310 -132 -129 -56 -215 -88 -222 -83 -129
90 -453 289 -778 478 -445 259 -619 388 -830 617 -93 102 -162 196 -248 338
-53 89 -589 1151 -583 1157 2 2 16 -1 32 -7 15 -6 146 -42 289 -80 144 -37
303 -84 354 -104 364 -141 629 -357 913 -746 237 -325 335 -455 382 -511 17
-20 54 -62 81 -95 28 -32 88 -98 134 -146 66 -69 90 -88 111 -88 41 0 73 31
73 68 0 26 -15 48 -89 124 -114 118 -221 247 -347 418 -408 552 -506 666 -712
832 -198 159 -465 285 -761 358 l-129 33 -110 97 c-231 204 -398 391 -544 608
-196 294 -283 499 -331 785 -44 259 -115 570 -189 826 -17 58 -30 106 -28 107
1 1 107 -56 235 -126 255 -141 357 -214 522 -380 219 -219 328 -399 503 -835
140 -348 218 -495 367 -690 85 -112 218 -251 247 -260 22 -6 62 9 75 29 21 31
7 72 -38 116 -74 72 -193 218 -257 315 -77 117 -166 302 -271 561 -181 448
-277 607 -518 854 -112 115 -300 269 -438 360 -24 16 -60 63 -117 159 -292
486 -476 993 -499 1376 -5 90 0 135 49 445 30 190 70 447 88 572 l33 227 43
-64 c82 -122 160 -260 277 -487 188 -365 205 -429 251 -956 40 -459 77 -640
190 -927 85 -216 150 -325 193 -325 30 0 72 38 72 66 0 13 -27 79 -59 147
-154 316 -217 582 -256 1082 -34 425 -67 574 -182 813 -152 319 -183 405 -232
647 -100 498 -105 962 -12 1253 47 147 81 194 290 405 223 226 201 203 266
282 78 94 152 214 189 303 l33 82 30 -57 c37 -70 64 -153 97 -293 45 -195 75
-364 87 -498 25 -285 -33 -569 -173 -845 -88 -176 -139 -375 -158 -617 -13
-174 -1 -376 24 -415 23 -35 61 -42 94 -18 l27 20 -4 199 c-6 330 30 520 143
762 136 293 185 473 193 717 9 232 -12 373 -118 825 l-60 255 10 165 c20 327
115 577 282 748 28 29 92 80 143 114 155 106 353 314 498 526 40 58 42 57 53
-38 4 -30 24 -163 45 -295 56 -343 63 -419 57 -579 -9 -243 -45 -329 -204
-498 -276 -292 -372 -536 -376 -956 -2 -161 -2 -164 22 -183 30 -24 62 -24 92
0 23 19 24 25 30 213 13 398 89 577 372 872 114 119 161 219 193 407 30 183 8
492 -54 749 l-18 75 57 218 c65 249 82 300 154 452 164 349 383 585 636 685
228 90 532 264 722 413 21 16 40 27 42 25 7 -7 -24 -340 -41 -448 -56 -358
-169 -626 -320 -759 -25 -22 -95 -65 -155 -96 -117 -60 -227 -144 -298 -228
-133 -156 -249 -392 -302 -612 -18 -77 -18 -81 -1 -104 28 -38 47 -47 79 -35
34 12 43 31 82 174 39 139 121 315 199 423 82 114 165 185 296 253 162 83 240
150 321 274 118 181 198 415 243 715 18 120 19 121 77 205 216 312 421 520
694 704 147 99 275 158 521 240 255 84 445 161 638 256 117 58 132 63 132 45
0 -45 -32 -284 -45 -341 -65 -279 -360 -710 -659 -960 -183 -153 -421 -311
-681 -452 -138 -75 -165 -96 -165 -129 0 -27 41 -73 65 -73 32 0 335 168 520
288 360 235 647 516 841 825 66 104 173 308 215 407 13 30 25 57 29 60 3 3 37
43 76 90 170 203 359 357 584 478 233 124 381 165 676 187 226 16 414 48 554
94 52 16 95 29 96 28 6 -6 -209 -349 -264 -422 -190 -249 -492 -468 -837 -605
-116 -46 -279 -95 -495 -150 -113 -28 -219 -58 -237 -65 -52 -22 -58 -83 -13
-117 25 -18 27 -18 265 41 457 115 686 206 946 377 182 119 382 296 514 454
76 91 341 329 433 388 149 97 304 156 482 185 55 9 402 6 510 -4z m3138 -71
c21 -29 48 -71 60 -93 l22 -40 -39 45 c-38 42 -98 140 -87 140 3 0 23 -24 44
-52z m-1278 -78 c71 -106 84 -120 117 -129 85 -22 322 -81 328 -81 3 0 -22 40
-55 90 -62 93 -72 120 -42 120 11 0 46 -43 97 -117 l80 -116 143 -38 c78 -20
142 -35 142 -32 0 2 -43 83 -95 179 -53 96 -93 179 -89 185 17 27 46 -11 144
-191 l106 -195 128 -33 c71 -18 130 -31 132 -29 3 2 -36 70 -86 149 -49 80
-90 151 -90 157 0 7 10 11 22 9 15 -2 50 -48 127 -173 l106 -169 103 -24 c96
-22 102 -25 102 -48 0 -19 -4 -24 -17 -20 -126 37 -145 38 -212 17 -329 -103
-497 -149 -509 -139 -24 21 8 35 238 103 124 37 229 70 234 73 5 3 -48 21
-119 39 -99 26 -130 31 -136 21 -10 -16 -571 -168 -583 -158 -25 24 15 40 256
105 139 37 257 71 261 75 4 4 -54 23 -129 44 -107 29 -142 35 -158 27 -34 -17
-445 -123 -464 -119 -9 2 -17 10 -17 18 0 11 55 29 207 70 114 30 204 57 200
61 -14 15 -367 97 -382 89 -8 -4 -106 -29 -218 -56 -148 -35 -205 -45 -213
-37 -6 6 -8 16 -5 21 3 6 86 30 183 53 127 31 171 45 157 51 -10 4 -136 35
-279 68 -143 33 -268 63 -277 66 -19 6 -25 44 -8 44 6 0 137 -30 291 -66 154
-36 282 -64 284 -62 2 2 -24 45 -57 96 -55 84 -67 122 -39 122 6 0 47 -54 91
-120z m-955 -3 c42 -37 85 -92 121 -150 31 -51 101 -158 156 -239 l99 -147 57
20 c88 30 188 43 233 30 51 -15 113 -87 172 -200 37 -69 53 -91 65 -87 63 18
228 48 291 53 86 6 136 -9 267 -84 l71 -40 59 30 c54 27 157 67 174 67 5 0 -1
-17 -12 -37 -14 -29 -18 -52 -16 -95 5 -71 41 -121 110 -156 l46 -23 -19 -42
c-25 -56 -24 -103 4 -157 33 -66 91 -103 168 -106 60 -3 62 -4 85 -42 27 -45
108 -92 157 -92 50 0 108 23 143 56 30 28 34 29 39 12 11 -31 56 -78 96 -98
47 -24 115 -26 169 -4 23 9 42 15 43 13 34 -50 65 -81 100 -98 110 -53 244 4
278 119 11 35 16 40 43 40 17 0 51 12 75 25 46 26 64 22 59 -15 -1 -8 1 -24 5
-35 6 -19 16 -20 159 -21 218 0 310 -28 436 -133 50 -41 133 -138 160 -187 5
-10 27 -3 91 29 84 42 85 42 195 42 61 0 144 -4 184 -9 61 -7 72 -6 72 6 0 8
11 20 25 26 104 47 424 -259 401 -383 l-7 -35 62 0 c37 0 75 -7 97 -17 57 -27
135 -111 182 -196 36 -66 46 -77 68 -77 48 0 102 -21 135 -51 l32 -29 -28 -21
c-55 -42 -83 -126 -66 -195 12 -45 66 -115 99 -126 13 -4 13 -8 -2 -24 -83
-94 -50 -241 67 -295 22 -10 55 -19 73 -19 30 0 32 -2 32 -34 0 -47 13 -77 49
-119 l31 -35 -30 -12 c-68 -28 -117 -118 -106 -194 15 -95 87 -158 192 -164
59 -4 67 -7 95 -40 65 -73 73 -137 29 -227 l-22 -46 22 -24 c20 -22 24 -22 56
-9 113 47 273 -46 351 -204 23 -48 28 -70 28 -135 0 -55 3 -76 12 -73 81 32
318 38 426 12 90 -21 200 -73 264 -124 46 -37 59 -42 102 -42 80 0 85 -5 53
-53 -26 -39 -33 -88 -23 -172 1 -11 -1 -41 -5 -68 -13 -92 48 -184 139 -209
l42 -11 1 -53 c0 -43 6 -63 30 -96 33 -48 101 -88 149 -88 29 0 31 -2 27 -34
-13 -111 88 -211 207 -204 l56 3 -3 -45 c-11 -156 196 -256 319 -153 l29 25 0
-26 c0 -15 7 -43 15 -64 42 -100 148 -145 253 -108 l41 15 -6 -37 c-17 -124
-71 -222 -174 -316 l-64 -58 25 -17 c84 -55 165 -155 200 -250 l19 -49 -152
102 c-187 126 -257 165 -372 210 -83 31 -157 51 -575 152 -91 22 -214 63 -330
109 -102 40 -361 130 -577 199 -729 234 -1061 369 -1403 567 -317 184 -536
252 -810 252 -145 0 -231 -13 -328 -47 l-43 -15 -222 80 c-122 44 -294 105
-382 136 -88 30 -203 71 -255 90 -408 152 -1457 738 -1910 1067 -58 42 -143
95 -189 119 -82 41 -87 42 -180 41 -81 -1 -114 -6 -216 -38 -230 -72 -275 -80
-450 -80 -88 -1 -201 4 -252 11 -264 34 -563 -56 -1240 -376 -219 -103 -329
-147 -583 -232 -379 -126 -874 -261 -1225 -333 -189 -38 -273 -51 -450 -66
-225 -18 -340 -61 -630 -234 -274 -163 -557 -298 -1092 -520 -640 -266 -919
-361 -1323 -450 -292 -65 -699 -139 -731 -134 -14 3 -7 27 40 153 100 266 202
428 365 583 48 44 86 82 86 85 0 2 -72 12 -159 22 l-160 18 97 57 c273 158
493 340 619 510 22 30 63 96 91 145 28 50 77 122 109 160 110 131 327 278 514
349 38 14 58 26 49 30 -8 3 -100 22 -203 42 l-188 37 88 23 c246 63 466 167
663 313 41 31 138 119 216 196 78 77 177 166 221 197 159 115 330 186 508 211
103 15 103 15 -103 48 l-142 23 124 23 c331 60 608 195 861 419 134 119 234
194 344 259 150 88 349 162 479 180 29 4 51 9 49 11 -2 3 -109 26 -238 53
-183 38 -226 50 -199 54 19 3 96 16 170 27 306 48 593 133 809 241 113 56 174
96 356 234 211 160 580 414 733 504 39 24 72 46 72 48 0 5 -289 -1 -575 -12
l-130 -5 105 38 c387 142 693 330 1110 682 80 67 189 158 243 201 l98 79 50
-28 c28 -15 79 -53 114 -85z m2799 -95 c28 -22 149 -116 269 -210 120 -95 220
-172 223 -172 3 0 -25 58 -62 129 -66 128 -75 166 -37 159 12 -2 52 -69 115
-193 l96 -189 102 -83 c56 -46 103 -83 105 -83 2 0 -37 72 -87 160 -54 97 -88
166 -84 176 15 39 45 0 168 -216 124 -218 148 -250 231 -312 l28 -20 -16 38
c-92 218 -125 308 -117 316 27 27 46 -2 137 -221 l93 -224 138 -123 c77 -68
142 -124 146 -124 3 0 -45 106 -108 236 -105 215 -114 238 -100 253 14 13 18
13 30 1 13 -13 264 -529 279 -571 3 -9 71 -69 151 -134 80 -65 146 -124 146
-132 0 -21 -28 -27 -53 -10 -12 8 -88 69 -169 136 l-147 121 -263 0 c-145 0
-269 4 -277 9 -8 5 -11 15 -8 23 5 16 174 28 379 28 l98 0 -145 129 -144 129
-246 -6 -247 -5 4 24 3 24 204 7 c112 4 206 8 210 10 4 2 -21 27 -56 57 l-63
53 -188 44 c-103 25 -195 47 -204 50 -20 6 -24 40 -6 46 7 3 75 -11 152 -29
76 -18 141 -32 142 -30 3 3 -213 183 -258 215 -15 11 -45 11 -175 -2 -208 -21
-223 -21 -223 3 0 11 3 22 8 24 4 3 70 11 147 18 77 6 145 15 152 18 6 3 -103
95 -245 206 -318 249 -317 248 -309 268 9 25 25 21 81 -21z m2316 -1087 c112
-134 205 -243 207 -242 1 2 -14 62 -34 135 -36 133 -36 163 -1 149 12 -4 108
-332 108 -367 0 -13 151 -202 157 -196 2 2 -16 69 -41 148 -53 167 -55 181
-24 176 19 -3 30 -31 93 -230 62 -196 78 -235 114 -283 24 -31 45 -54 48 -52
2 3 -7 68 -21 145 -32 172 -33 192 -6 192 11 0 20 -1 20 -2 0 -2 20 -104 43
-228 l43 -225 103 -138 c56 -77 104 -137 106 -135 2 1 -21 104 -51 228 -30
123 -53 231 -52 240 2 8 12 15 23 15 16 0 27 -34 86 -280 38 -154 67 -284 65
-290 -1 -5 48 -73 110 -150 61 -76 110 -145 107 -152 -13 -32 -46 -3 -162 142
-123 152 -125 154 -175 165 -28 5 -136 27 -241 48 -175 35 -190 40 -193 60 -4
29 -2 29 233 -18 109 -22 199 -39 201 -37 1 1 -38 56 -87 122 -49 66 -97 131
-107 143 -15 21 -42 28 -237 63 -121 21 -221 39 -222 39 -2 0 -3 9 -3 20 0 27
20 26 224 -10 93 -17 170 -29 172 -28 1 2 -18 31 -44 64 -46 60 -50 62 -220
140 -96 43 -176 83 -179 87 -3 5 1 15 9 24 13 12 28 8 121 -36 59 -27 116 -53
128 -56 14 -5 -12 34 -80 118 -55 69 -104 128 -108 130 -5 3 -84 13 -176 23
-124 12 -170 21 -174 31 -12 31 13 35 153 19 76 -8 140 -13 142 -11 3 2 -85
111 -194 242 -110 130 -205 245 -212 255 -15 21 -9 48 11 48 7 0 105 -110 217
-245z m1897 -904 c46 -134 85 -246 87 -249 4 -3 16 34 52 161 3 9 14 17 25 17
27 0 25 -23 -13 -158 l-32 -115 38 -111 c63 -182 58 -180 101 -41 37 121 54
153 74 141 17 -11 14 -28 -34 -183 -25 -79 -45 -153 -45 -163 0 -22 80 -233
86 -228 2 3 24 64 49 137 47 138 89 231 104 231 5 0 14 -6 20 -14 8 -10 4 -28
-18 -77 -33 -74 -121 -332 -121 -357 0 -9 17 -56 37 -106 l37 -89 43 89 c24
49 58 134 75 189 17 55 35 105 40 112 13 16 38 5 38 -17 0 -33 -67 -223 -109
-309 -23 -47 -41 -100 -41 -118 l0 -33 -57 0 c-56 0 -61 2 -225 111 -117 78
-168 118 -168 130 0 12 7 19 18 19 9 0 91 -50 181 -110 90 -61 165 -109 167
-108 1 2 -20 57 -48 123 -60 145 -91 181 -285 323 -124 91 -150 120 -123 137
6 4 19 1 30 -7 65 -47 220 -162 248 -185 l33 -26 -20 52 c-12 28 -21 54 -21
56 0 2 -8 12 -19 22 -57 55 -251 287 -248 297 2 6 12 12 23 13 13 2 44 -27 99
-91 44 -52 81 -93 83 -91 2 2 -20 69 -49 150 l-52 146 -121 106 c-126 111
-141 127 -131 143 13 20 34 8 118 -65 47 -41 88 -75 90 -75 3 0 -28 100 -69
222 -41 122 -74 229 -74 236 0 8 9 12 22 10 20 -3 33 -33 105 -247z m-247
-892 c0 -11 -4 -18 -10 -14 -5 3 -7 12 -3 20 7 21 13 19 13 -6z m-558 -159
c-5 -37 -15 -38 -30 -5 -16 34 -16 35 11 35 20 0 23 -4 19 -30z m84 -483 c149
-46 319 -109 442 -164 57 -25 105 -43 108 -41 2 3 -7 36 -21 73 -24 62 -25 70
-10 84 26 27 46 2 85 -108 l36 -102 64 -36 c35 -19 97 -57 138 -85 40 -27 76
-47 79 -45 3 3 -3 39 -13 80 -17 76 -15 107 8 107 26 0 35 -18 64 -130 l30
-115 163 -83 c89 -46 164 -82 166 -80 2 2 -37 90 -87 196 -84 180 -90 195 -74
210 12 12 21 14 32 7 8 -6 62 -111 121 -235 l105 -226 181 -77 c99 -42 182
-75 184 -73 2 2 -30 81 -72 175 -42 95 -75 179 -73 189 2 10 13 17 27 17 21 0
33 -22 116 -210 l93 -210 176 -70 c96 -38 178 -75 180 -82 3 -6 -1 -19 -9 -29
-12 -17 -24 -14 -201 56 l-189 73 -175 8 c-96 4 -239 8 -316 8 -148 1 -175 9
-160 47 6 15 30 16 236 12 127 -2 230 -3 230 -1 0 2 -17 11 -37 19 -21 9 -87
37 -148 64 l-110 48 -175 -9 c-96 -5 -218 -15 -270 -23 -96 -14 -120 -10 -120
20 0 7 8 17 18 22 19 11 265 41 357 45 l60 2 -130 68 -130 68 -215 -14 c-118
-8 -220 -12 -227 -10 -6 3 -14 10 -16 17 -13 32 11 39 180 52 92 7 170 13 172
13 6 1 -166 113 -219 143 l-45 26 -200 -49 c-222 -54 -233 -56 -241 -34 -12
30 19 44 174 80 86 21 161 40 165 45 12 11 -248 117 -465 188 -154 50 -198 69
-198 82 0 39 18 39 156 -3z m-5328 -277 c108 -26 192 -65 277 -130 116 -88
202 -141 379 -231 192 -98 192 -99 1 -99 -173 0 -300 42 -476 160 -110 74
-337 243 -394 295 l-40 36 86 -6 c47 -3 123 -15 167 -25z m-608 -131 c70 -32
119 -76 158 -137 51 -80 51 -87 -7 -142 -69 -67 -127 -84 -286 -82 -189 1
-304 33 -368 99 -46 50 -60 132 -32 199 27 66 143 94 365 90 100 -1 122 -5
170 -27z m585 -551 c269 -62 444 -155 705 -378 166 -141 498 -351 708 -446 39
-19 72 -36 72 -38 0 -18 -277 30 -399 70 -208 68 -343 144 -601 341 -177 134
-405 295 -560 393 -63 40 -119 78 -125 83 -14 13 90 0 200 -25z m-981 -6 c3
-5 -23 -22 -58 -39 -136 -67 -286 -180 -374 -282 -92 -105 -229 -189 -369
-225 -92 -24 -101 -21 -54 18 106 89 223 202 319 309 119 133 166 170 261 203
52 19 87 24 168 24 56 0 104 -4 107 -8z m-1144 -26 c0 -11 -186 -125 -288
-175 -268 -134 -579 -225 -1092 -320 -118 -22 -316 -59 -440 -82 -277 -51
-551 -119 -775 -194 -154 -51 -621 -223 -670 -247 -35 -17 46 49 172 139 349
250 731 432 1094 522 191 48 341 70 619 92 140 11 302 26 360 35 227 32 615
121 920 208 90 26 100 28 100 22z m10468 -34 c16 -11 39 -144 54 -315 9 -107
14 -135 23 -125 7 7 45 52 85 101 39 48 74 87 75 87 18 0 35 -16 35 -32 0 -11
-47 -76 -105 -146 l-104 -127 -1 -169 0 -169 23 19 c12 10 52 47 89 81 69 66
90 75 107 46 9 -15 -8 -36 -109 -133 l-120 -115 0 -67 c0 -65 -15 -327 -24
-420 -3 -27 -2 -48 2 -48 4 0 72 70 151 155 109 117 150 155 165 153 50 -7 27
-42 -153 -232 l-178 -190 -12 -195 c-7 -108 -15 -204 -18 -215 -9 -33 14 -9
148 157 72 89 138 166 146 171 18 10 48 -16 40 -36 -3 -7 -78 -103 -167 -212
-89 -110 -166 -213 -171 -230 -18 -62 15 -386 81 -796 l38 -235 -20 -32 c-11
-18 -23 -33 -27 -33 -7 0 -65 348 -101 605 -23 167 -40 355 -40 446 l0 66
-195 233 c-107 127 -195 241 -195 251 0 27 27 35 50 14 11 -10 93 -105 182
-212 90 -106 164 -190 165 -186 8 28 32 417 26 426 -4 7 -88 108 -187 225
-181 213 -205 254 -161 260 16 2 58 -41 184 -190 90 -106 167 -194 172 -196 5
-2 9 7 9 20 0 13 7 122 15 243 8 121 15 239 15 262 l0 42 -207 143 c-114 79
-209 151 -211 160 -2 9 5 21 16 27 16 8 49 -11 207 -119 104 -72 192 -130 197
-130 4 0 8 74 8 164 l0 164 -112 82 c-186 136 -200 148 -188 171 6 10 16 19
23 19 7 0 71 -43 142 -95 71 -52 130 -93 133 -91 7 8 -18 287 -35 389 -14 84
-14 100 -2 108 17 11 21 11 37 1z m-7202 -93 c383 -37 607 -139 1034 -470 209
-162 313 -229 510 -327 186 -93 264 -126 480 -203 74 -26 131 -48 127 -48 -47
-3 -611 43 -672 54 -306 58 -630 229 -1030 541 -238 185 -389 282 -619 395
l-138 69 99 0 c55 0 149 -5 209 -11z m-3501 -301 c-112 -139 -244 -258 -380
-341 -86 -53 -266 -126 -482 -198 -103 -34 -221 -77 -261 -95 -85 -38 -188
-109 -226 -154 -14 -18 -26 -27 -26 -21 0 28 53 150 86 198 91 132 221 209
454 268 279 71 424 130 570 230 107 74 312 196 318 190 3 -2 -21 -37 -53 -77z
m1602 -343 c106 -31 193 -165 215 -329 20 -145 -9 -255 -98 -378 -62 -84 -77
-131 -82 -254 -3 -75 -1 -118 8 -133 27 -51 147 -68 208 -31 59 36 79 98 117
365 17 122 49 229 77 257 17 17 28 19 65 14 108 -14 162 -93 171 -246 6 -113
-4 -138 -80 -196 -88 -68 -92 -79 -96 -282 l-4 -173 41 -59 c56 -79 116 -208
143 -305 19 -69 22 -105 22 -270 0 -164 -3 -201 -22 -270 -30 -112 -111 -271
-184 -361 -43 -53 -59 -80 -52 -89 5 -7 28 -37 51 -66 74 -96 137 -243 165
-382 6 -34 11 -120 11 -192 -1 -104 -6 -149 -26 -225 -42 -163 -124 -315 -220
-409 l-45 -43 62 -77 c127 -157 185 -315 193 -524 12 -275 -64 -488 -235 -669
l-55 -58 49 -52 c91 -97 158 -232 189 -380 20 -91 19 -269 -1 -366 -44 -215
-188 -424 -350 -509 -30 -15 -54 -30 -54 -33 0 -3 25 -21 56 -40 31 -19 85
-65 119 -103 195 -210 250 -553 134 -834 -40 -94 -99 -179 -125 -176 -10 1
-212 4 -449 7 l-430 5 -19 23 c-30 37 -82 148 -108 228 -20 65 -23 95 -23 230
1 149 2 159 33 250 18 52 53 127 78 166 47 77 149 179 214 216 39 23 51 38 29
38 -26 0 -153 96 -209 158 -68 75 -150 228 -175 327 -71 279 -13 561 159 774
l64 79 -45 43 c-211 206 -298 555 -217 873 24 96 105 253 172 332 l60 72 -40
38 c-99 96 -188 259 -229 419 -34 133 -32 340 4 479 32 119 89 238 157 329
l52 67 -51 61 c-150 180 -223 389 -224 639 0 218 48 388 155 550 l60 92 -4
166 c-3 100 -10 180 -17 200 -8 19 -37 51 -72 78 -82 63 -92 86 -87 199 3 76
9 101 33 151 24 48 39 63 75 82 91 45 132 24 169 -87 11 -35 28 -114 36 -175
33 -238 54 -306 107 -351 57 -48 193 -25 219 36 7 18 10 69 7 141 -4 127 -12
147 -100 272 -68 97 -92 181 -85 295 13 220 122 376 273 390 6 1 33 -6 61 -14z
m-3147 -88 c-182 -176 -350 -299 -515 -378 -116 -55 -228 -82 -530 -129 -221
-33 -382 -75 -493 -125 -88 -41 -85 -30 25 76 172 166 357 257 615 300 288 48
558 137 847 280 75 37 138 68 141 68 3 0 -38 -41 -90 -92z m7615 18 c94 -20
277 -112 450 -225 174 -115 273 -168 395 -213 122 -45 310 -87 423 -94 48 -3
90 -9 92 -13 7 -11 -105 -37 -215 -51 -117 -14 -290 -6 -408 20 -182 40 -316
102 -557 258 -206 133 -336 192 -535 243 -44 12 -45 12 -20 25 29 15 143 52
180 58 54 9 128 6 195 -8z m-5924 -205 c200 -21 433 -82 591 -155 l57 -26 -30
-47 c-35 -55 -55 -119 -65 -202 -4 -33 -9 -60 -11 -60 -3 0 -48 13 -101 30
-381 117 -754 78 -1057 -111 -48 -30 -133 -97 -190 -151 l-102 -97 -74 15
c-88 19 -233 14 -354 -11 -428 -90 -941 -419 -1131 -726 l-35 -56 -167 -6
c-183 -6 -297 -23 -424 -63 -270 -85 -500 -283 -679 -585 -29 -48 -53 -75 -82
-93 -118 -69 -195 -160 -228 -268 -42 -136 -11 -308 80 -454 l41 -65 -24 -47
c-55 -110 -64 -221 -26 -310 28 -64 111 -144 186 -179 34 -15 53 -30 50 -38
-2 -7 -10 -75 -17 -151 -26 -303 18 -515 133 -640 l40 -44 -11 -75 c-14 -98
-14 -279 0 -347 13 -59 45 -134 81 -188 l23 -35 -32 23 c-67 48 -116 152 -129
276 -6 54 5 179 23 267 4 24 -1 31 -55 68 -159 107 -238 217 -262 363 -12 69
-9 191 6 266 5 24 3 32 -7 32 -29 0 -118 49 -152 84 -97 97 -150 263 -127 401
5 33 26 93 45 132 l36 73 -25 33 c-43 57 -87 163 -108 264 -26 123 -27 314 -4
423 33 149 115 280 208 330 41 21 45 28 71 111 102 314 369 528 760 609 81 17
258 40 302 40 9 0 23 16 32 38 29 71 123 202 205 288 255 266 628 490 968 581
127 34 325 43 419 19 l64 -16 71 77 c270 293 745 450 1217 403z m3269 -20
c296 -53 541 -177 727 -366 l92 -94 57 15 c76 20 244 19 342 -1 475 -96 1047
-489 1232 -846 23 -44 47 -78 56 -78 46 0 222 -24 303 -42 296 -63 516 -196
650 -391 42 -61 106 -198 121 -257 10 -39 18 -49 56 -70 85 -44 150 -137 194
-275 34 -104 39 -334 12 -465 -25 -118 -54 -196 -98 -261 l-34 -51 37 -75 c34
-69 38 -85 41 -173 6 -147 -28 -248 -116 -342 -44 -47 -106 -88 -134 -88 -36
-1 -39 -14 -27 -113 21 -178 -17 -324 -111 -430 -23 -26 -80 -75 -127 -109
-84 -61 -85 -62 -79 -97 3 -20 11 -75 17 -124 21 -175 -27 -331 -127 -409
l-29 -23 24 38 c40 65 60 113 76 179 18 76 19 232 3 346 l-11 83 30 32 c121
127 167 324 144 620 -7 83 -14 161 -17 173 -4 17 5 26 60 53 82 40 158 120
181 192 26 78 17 187 -23 272 l-31 66 45 78 c70 123 89 190 89 313 0 97 -2
110 -32 173 -38 80 -115 165 -193 212 -46 28 -66 49 -104 112 -188 304 -394
483 -661 572 -130 43 -247 62 -436 68 l-166 6 -51 76 c-185 279 -647 584
-1035 685 -180 47 -369 57 -476 26 -34 -9 -36 -8 -125 78 -140 135 -274 218
-450 278 -238 82 -560 78 -826 -11 -41 -13 -78 -25 -81 -25 -4 0 -10 26 -14
57 -10 81 -40 172 -69 212 -14 19 -23 37 -21 41 7 11 230 96 310 119 257 72
548 87 805 41z m-2795 -946 c72 -8 157 -21 190 -27 59 -12 60 -13 63 -48 2
-28 -6 -50 -39 -102 l-42 -65 -186 -1 c-254 0 -413 -29 -604 -111 -219 -95
-451 -274 -632 -492 l-69 -83 -146 -1 c-171 0 -240 -15 -375 -79 -195 -92
-349 -250 -498 -510 -28 -49 -72 -117 -99 -150 -58 -72 -111 -177 -133 -264
-48 -188 -19 -436 80 -677 52 -126 52 -127 1 -44 -135 221 -203 485 -194 754
4 118 9 153 31 219 33 95 62 142 120 193 39 34 47 49 66 118 60 220 226 435
452 586 176 118 344 179 516 187 l101 6 78 84 c105 116 229 222 351 303 281
186 586 250 968 204z m2370 -14 c187 -40 372 -127 545 -258 41 -31 134 -116
207 -189 l132 -133 74 0 c208 0 495 -131 699 -319 135 -124 254 -316 291 -469
14 -54 23 -69 66 -108 64 -57 114 -158 137 -274 13 -66 15 -116 11 -230 -9
-214 -51 -378 -148 -575 -69 -139 -99 -175 -54 -65 106 264 137 508 90 696
-21 83 -85 208 -147 286 -29 36 -73 104 -98 149 -153 282 -364 469 -615 545
-77 23 -112 27 -242 30 l-153 3 -90 105 c-238 276 -522 463 -811 535 -143 35
-218 43 -406 43 l-181 -1 -42 65 c-33 51 -41 71 -38 101 l3 37 65 13 c229 47
518 52 705 13z m-2325 -769 l0 -109 -45 -7 c-152 -22 -295 -116 -354 -233 -14
-28 -36 -49 -76 -71 -117 -66 -197 -183 -230 -336 -16 -73 -21 -315 -9 -406 4
-27 4 -49 1 -49 -9 0 -56 152 -72 233 -22 113 -19 266 5 362 31 121 83 200
171 257 31 20 52 41 56 57 12 53 55 137 95 189 88 114 287 218 426 221 l32 1
0 -109z m1943 74 c174 -60 308 -188 354 -337 16 -54 24 -64 74 -98 126 -86
188 -232 189 -438 0 -105 -28 -258 -64 -355 l-23 -62 5 180 c4 144 1 198 -12
265 -31 160 -113 284 -229 350 -41 23 -63 45 -91 90 -20 32 -56 75 -79 96 -56
48 -168 102 -245 116 l-62 12 0 109 0 110 57 -7 c31 -4 88 -17 126 -31z m9027
-363 c-1 -114 -5 -252 -9 -307 -5 -55 -7 -101 -6 -103 2 -2 40 41 86 95 56 67
89 98 103 98 46 0 28 -39 -84 -174 -61 -74 -112 -137 -115 -141 -2 -3 -15 -80
-30 -171 -14 -90 -36 -216 -49 -279 -14 -63 -23 -116 -22 -117 1 -1 53 52 115
118 85 90 119 119 135 117 47 -7 27 -38 -127 -200 l-154 -163 -52 -192 c-28
-106 -51 -195 -51 -197 0 -3 68 40 152 95 84 55 159 98 168 97 8 -2 16 -13 18
-25 3 -18 -26 -41 -180 -144 -101 -67 -184 -123 -186 -124 -1 -1 -31 -103 -66
-226 -94 -329 -105 -369 -100 -369 2 0 80 70 175 156 169 154 201 173 207 128
2 -17 -43 -64 -206 -212 l-210 -191 -21 -93 c-12 -51 -33 -151 -47 -223 -14
-71 -27 -140 -29 -151 -3 -14 -15 -24 -32 -27 -16 -3 -30 -4 -32 -2 -6 6 19
143 61 334 l40 184 -76 276 c-42 152 -76 286 -76 299 0 19 5 23 27 20 27 -3
29 -9 89 -226 34 -122 63 -225 66 -227 3 -3 32 93 66 212 34 120 70 248 81
284 l19 66 -160 224 c-88 123 -162 230 -165 238 -7 16 23 42 41 35 7 -3 77
-97 157 -209 89 -126 147 -199 151 -191 4 6 29 97 57 200 l50 189 -128 255
c-71 140 -127 261 -124 268 3 8 16 14 29 14 21 0 37 -25 132 -217 60 -119 111
-212 114 -207 10 15 67 313 87 447 l18 127 -108 211 c-60 116 -109 214 -109
218 0 16 27 31 43 25 9 -3 53 -78 98 -167 l83 -162 8 40 c4 22 10 161 13 309
5 280 8 296 47 275 16 -9 18 -27 18 -217z m-17004 -647 c65 -9 199 -31 298
-51 410 -78 463 -86 632 -87 l162 -2 12 -69 c16 -89 51 -192 89 -262 27 -51
28 -56 15 -84 -19 -38 -62 -45 -254 -44 -161 0 -204 6 -530 69 -397 77 -424
80 -655 79 -229 0 -219 1 -645 -84 -135 -26 -264 -51 -288 -54 l-44 -6 7 92
c6 81 32 250 52 343 l6 29 -35 -29 c-20 -17 -83 -72 -142 -123 l-106 -93 36
83 c20 46 42 98 49 116 8 17 20 32 27 32 60 0 303 37 488 75 427 87 588 101
826 70z m2201 0 c65 -9 228 -36 363 -60 298 -54 415 -72 541 -81 l96 -7 6
-116 c6 -102 19 -194 43 -310 l7 -34 -114 7 c-136 8 -245 24 -529 76 -331 61
-402 70 -575 77 -145 5 -281 -4 -364 -24 -20 -5 -22 -3 -17 15 5 14 -6 39 -39
86 -26 36 -57 91 -70 123 -24 60 -51 180 -43 189 7 6 216 53 286 63 94 14 284
12 409 -4z m2219 0 c56 -8 178 -31 270 -51 238 -51 350 -71 432 -80 l71 -7 16
-56 c42 -147 90 -246 142 -292 47 -40 56 -38 49 14 -3 23 -8 105 -12 183 l-7
140 154 13 c149 12 343 37 505 65 44 7 80 13 81 12 1 -1 -7 -32 -18 -70 -24
-89 -42 -265 -34 -337 l7 -56 -134 -21 c-498 -81 -679 -80 -1088 5 -429 89
-410 86 -615 87 -211 1 -225 -1 -529 -75 -110 -27 -201 -47 -203 -45 -11 11
-19 171 -12 239 7 69 37 184 57 213 8 13 346 97 472 118 112 18 271 19 396 1z
m5144 -13 c52 -12 169 -39 260 -62 142 -35 303 -62 430 -72 33 -3 36 -7 54
-58 24 -70 33 -262 16 -343 l-11 -57 -42 0 c-89 1 -263 31 -483 84 -289 70
-370 80 -554 73 -152 -7 -218 -17 -570 -90 -118 -25 -267 -50 -330 -57 -123
-13 -334 -7 -492 13 l-88 12 -4 180 c-2 124 -8 196 -19 233 -14 49 -14 52 1
48 83 -25 525 -40 656 -23 l59 7 -7 -132 c-4 -73 -9 -161 -12 -195 -8 -76 3
-80 55 -25 56 59 125 221 155 362 5 25 14 27 188 64 101 22 221 45 268 52 120
18 350 11 470 -14z m2260 0 c53 -11 159 -36 235 -55 77 -20 166 -41 198 -47
l58 -12 -6 -31 c-11 -50 -79 -187 -117 -236 l-34 -45 33 -55 c18 -30 33 -58
33 -62 0 -3 -24 -1 -52 7 -402 98 -479 109 -697 101 -169 -7 -243 -17 -571
-77 -118 -22 -241 -43 -273 -48 -57 -9 -58 -9 -53 12 21 74 39 218 40 323 1
107 3 123 18 123 9 0 141 23 293 50 152 28 322 57 378 65 142 20 392 14 517
-13z m2110 18 c47 -6 211 -36 365 -66 501 -100 649 -105 1098 -43 135 19 160
20 167 8 13 -21 -32 -63 -82 -76 -79 -21 -167 -121 -168 -189 0 -15 -12 -26
-40 -39 -56 -25 -117 -95 -132 -148 l-11 -44 -66 -7 c-187 -17 -337 -3 -671
64 -422 85 -416 84 -645 84 -231 1 -259 -2 -655 -79 -195 -38 -314 -57 -423
-69 -24 -2 -31 3 -47 35 l-19 37 29 53 c36 64 75 182 90 273 l12 65 46 7 c62
8 206 34 436 78 339 65 523 79 716 56z m-13850 -660 c69 -11 215 -38 325 -60
303 -59 417 -72 591 -68 l152 3 6 -66 c7 -77 34 -162 76 -236 17 -29 30 -55
30 -57 0 -10 -186 -30 -285 -29 -141 0 -242 14 -551 74 -328 63 -454 79 -632
79 -188 0 -257 -9 -590 -75 -151 -30 -284 -55 -297 -55 -20 0 -26 11 -49 83
-24 75 -56 229 -56 268 0 13 14 18 58 23 31 4 179 31 327 61 238 47 332 63
465 79 73 9 310 -5 430 -24z m2166 5 c60 -9 218 -36 352 -60 304 -56 455 -75
602 -75 l115 -1 52 -107 c29 -59 75 -136 102 -172 28 -36 50 -68 51 -71 0 -14
-180 -33 -300 -32 -144 1 -267 17 -607 79 -337 61 -449 74 -628 74 l-153 0 5
39 c5 40 5 40 -38 51 -64 17 -135 59 -174 101 -35 39 -62 107 -52 131 5 14
120 41 247 58 87 12 291 5 426 -15z m2244 -5 c58 -10 202 -39 320 -63 118 -25
262 -51 320 -58 202 -23 552 0 870 56 110 19 106 20 114 -16 9 -46 90 -214
131 -270 40 -57 55 -48 -150 -83 -594 -100 -804 -105 -1189 -25 -426 89 -434
90 -612 96 -191 6 -289 -5 -497 -57 -66 -17 -122 -29 -124 -26 -7 7 -72 186
-98 269 -17 56 -20 79 -12 82 54 17 398 95 457 104 41 6 86 13 100 15 50 9
267 -5 370 -24z m4960 15 c58 -7 197 -37 310 -64 213 -53 371 -81 452 -81 l47
0 -49 -142 c-68 -202 -85 -237 -107 -233 -10 2 -47 9 -83 15 -36 6 -147 31
-247 56 -278 67 -357 77 -557 71 -178 -6 -186 -7 -612 -96 -336 -69 -534 -73
-929 -16 -93 14 -171 25 -173 25 -2 0 18 28 44 62 48 61 120 192 142 257 l12
34 62 -7 c35 -3 104 -11 153 -16 131 -14 384 -12 505 4 58 8 202 35 320 60
418 88 515 98 710 71z m2262 0 c84 -11 515 -109 526 -119 1 -2 -12 -22 -28
-45 -37 -51 -106 -96 -178 -117 l-54 -16 7 -69 c4 -38 5 -69 4 -69 -2 0 -56
12 -119 26 -92 20 -152 26 -300 31 -214 6 -293 -2 -672 -71 -259 -47 -418 -70
-557 -81 l-84 -7 60 74 c63 76 137 198 169 280 19 47 19 47 74 54 30 3 143 22
250 41 611 109 691 116 902 88z m2323 -15 c66 -11 206 -38 311 -60 255 -53
396 -70 569 -70 l145 0 -10 -26 c-26 -68 -4 -164 51 -220 l31 -32 -34 -7 c-49
-11 -88 -33 -130 -73 l-37 -35 -98 7 c-153 10 -238 24 -528 81 -330 66 -399
75 -587 75 -178 0 -304 -16 -632 -79 -138 -27 -291 -54 -341 -60 -226 -26
-238 -25 -196 13 49 44 120 238 121 329 0 15 2 27 5 27 32 0 278 40 455 75
210 41 381 69 475 79 81 8 314 -4 430 -24z m-13945 -565 c52 -8 196 -35 320
-60 437 -85 632 -94 885 -41 66 14 123 26 128 26 4 0 7 -48 8 -107 0 -71 6
-132 19 -178 10 -38 15 -73 11 -77 -13 -15 -267 -68 -379 -80 -135 -14 -301
-2 -507 37 -531 102 -625 115 -809 115 -143 0 -306 -21 -541 -69 l-184 -38
-16 76 c-9 42 -30 123 -46 180 -16 57 -28 105 -27 106 8 6 531 108 616 120
121 18 388 13 522 -10z m2117 10 c66 -8 231 -35 365 -59 416 -76 455 -81 663
-80 175 0 202 3 343 32 84 18 157 30 161 27 5 -3 11 -1 13 5 4 13 184 57 312
76 72 12 138 14 231 10 129 -6 196 -17 571 -95 392 -81 612 -80 1144 4 85 14
167 28 182 31 l27 5 -33 -73 c-34 -73 -69 -192 -81 -280 -5 -31 -13 -49 -24
-52 -28 -8 -330 -54 -441 -68 -58 -7 -186 -12 -285 -13 -202 0 -276 10 -600
80 -291 63 -411 78 -585 72 -151 -5 -206 -15 -500 -86 -252 -61 -282 -65 -460
-65 -180 0 -234 7 -630 79 -314 57 -464 75 -621 75 l-126 0 -12 57 c-6 31 -11
116 -11 189 l0 133 33 4 c78 10 252 6 364 -8z m7244 0 c52 -7 178 -34 280 -59
309 -75 344 -80 549 -80 202 0 247 5 658 80 508 92 662 95 972 21 l95 -23 -1
-124 c0 -130 -22 -240 -47 -240 -7 0 -55 9 -107 21 -60 13 -152 22 -250 26
-183 6 -316 -7 -645 -68 -608 -111 -725 -113 -1113 -19 -285 70 -351 82 -493
87 -165 7 -268 -5 -524 -59 -392 -82 -455 -91 -650 -92 -166 -1 -420 18 -442
33 -5 3 -15 49 -22 101 -6 52 -27 139 -44 193 -25 74 -30 97 -19 97 7 0 71 -8
140 -17 86 -11 199 -17 347 -17 244 0 276 4 625 79 361 77 499 89 691 60z
m4485 0 c64 -9 202 -34 308 -55 268 -56 413 -79 547 -87 l116 -6 22 -42 22
-42 -23 -39 c-23 -39 -24 -52 -16 -211 2 -23 -1 -45 -5 -49 -16 -17 -285 19
-542 71 -377 76 -483 88 -685 82 -172 -6 -266 -19 -611 -86 -112 -22 -240 -45
-284 -52 -92 -14 -333 -18 -417 -6 l-58 8 16 31 c37 71 56 146 61 243 l6 100
111 -3 c140 -4 302 16 621 78 218 42 316 59 440 73 79 10 266 5 371 -8z m1511
-359 c1 -1 -11 -15 -25 -31 l-27 -30 0 46 0 46 25 -15 c14 -9 26 -16 27 -16z
m-11630 -1027 c44 -6 177 -43 304 -84 254 -84 357 -105 503 -105 159 0 267 23
516 107 211 72 231 77 327 81 116 5 186 -5 339 -49 108 -31 343 -115 356 -128
4 -4 1 -40 -8 -81 -22 -105 -14 -325 16 -435 45 -165 134 -319 247 -426 l59
-56 -68 -73 c-80 -85 -156 -229 -189 -355 -37 -147 -35 -343 7 -483 5 -18 -57
19 -272 164 -154 103 -280 188 -282 189 -1 1 -10 42 -19 90 -17 86 -18 87 -55
102 -63 25 -93 69 -119 175 -21 84 -23 115 -24 338 0 237 -1 247 -24 293 -38
79 -117 116 -241 117 -142 0 -251 -62 -299 -171 -22 -50 -51 -198 -51 -263 0
-25 -10 -63 -26 -94 l-26 -53 -42 24 c-22 14 -94 52 -158 86 l-116 62 -4 177
c-4 207 -15 242 -90 285 -61 35 -105 40 -190 22 -40 -8 -78 -15 -84 -15 -6 0
-58 43 -114 95 -57 53 -114 98 -127 101 -77 20 -243 -50 -301 -125 -18 -24
-36 -57 -39 -73 -3 -15 -9 -30 -12 -33 -4 -2 -54 12 -111 31 -111 36 -457 124
-673 170 -79 17 -131 33 -134 41 -17 44 96 86 292 109 183 21 295 52 512 142
167 70 226 91 298 106 34 7 41 6 122 -5z m6014 -20 c42 -10 168 -50 280 -89
255 -89 391 -125 542 -144 81 -11 134 -23 172 -41 57 -27 145 -106 145 -131 0
-21 -83 -59 -257 -115 -192 -62 -263 -98 -315 -160 -22 -26 -50 -50 -62 -53
-30 -7 -70 -53 -89 -104 -20 -51 -64 -122 -76 -122 -4 0 -28 18 -53 39 -50 45
-114 134 -209 294 -105 177 -199 267 -296 283 -65 10 -88 -1 -179 -86 -125
-118 -117 -115 -215 -95 -99 20 -143 11 -184 -36 -71 -85 -85 -172 -95 -611
-9 -398 -18 -475 -53 -482 -12 -3 -53 -10 -92 -17 -38 -7 -88 -18 -109 -26
-36 -12 -41 -12 -61 7 -41 38 -53 90 -75 310 -49 488 -113 701 -232 761 -36
18 -54 21 -123 17 -132 -9 -201 -50 -230 -139 -13 -38 -15 -88 -13 -265 2
-225 -6 -298 -49 -421 -16 -48 -62 -91 -105 -100 -16 -3 -32 -11 -34 -18 -3
-6 11 -87 31 -179 20 -92 34 -170 32 -172 -4 -4 -157 -24 -187 -24 -12 0 -15
20 -16 118 -1 235 -91 460 -242 606 l-41 39 50 45 c260 234 361 670 235 1016
l-23 66 36 10 c115 30 176 40 261 40 115 0 173 -13 354 -80 212 -78 315 -101
486 -107 181 -6 272 11 544 102 167 56 220 70 336 89 40 7 128 -4 211 -25z
m7099 -2 c0 -15 -62 -88 -200 -235 -111 -116 -198 -212 -195 -212 3 0 94 36
201 80 107 43 201 77 209 73 18 -6 20 -37 3 -50 -7 -5 -128 -56 -268 -113
l-255 -103 -265 -261 c-146 -143 -266 -263 -268 -266 -1 -3 116 -14 260 -24
145 -9 271 -19 281 -22 10 -3 17 -15 17 -30 0 -22 -4 -24 -47 -24 -27 0 -167
9 -312 20 l-265 19 -144 -137 c-171 -161 -426 -398 -536 -497 -42 -38 -73 -71
-68 -73 5 -1 189 22 408 53 219 31 404 53 411 51 17 -7 17 -45 -1 -52 -8 -3
-216 -33 -464 -68 -443 -61 -450 -63 -484 -92 -19 -16 -142 -123 -274 -239
-131 -115 -261 -229 -289 -252 -27 -23 -47 -44 -45 -46 3 -2 133 -28 290 -58
269 -51 285 -55 288 -77 2 -13 -3 -25 -13 -28 -8 -4 -147 19 -309 50 -161 31
-302 56 -314 56 -30 0 -283 -248 -530 -520 -195 -214 -443 -467 -506 -515 -29
-22 -37 -24 -65 -14 l-32 11 106 100 c138 131 283 281 492 508 93 102 241 254
328 338 l158 153 36 341 c30 287 39 343 53 352 13 8 21 7 32 -4 13 -13 10 -55
-19 -320 -18 -168 -31 -306 -30 -308 3 -4 156 127 435 374 l195 173 174 520
c112 336 179 522 189 526 9 3 22 -1 30 -9 13 -13 -3 -70 -138 -471 -84 -251
-150 -458 -147 -461 5 -5 284 249 566 516 l174 165 66 289 c69 299 81 331 115
296 13 -13 8 -44 -39 -250 -30 -129 -52 -237 -49 -239 3 -3 114 104 247 237
l242 242 59 227 c32 126 63 236 68 246 11 21 44 22 52 1 5 -12 -27 -149 -81
-349 -7 -26 97 75 280 273 103 111 147 152 164 152 17 0 23 -6 23 -23z
m-15953 -358 c151 -53 183 -68 187 -86 4 -12 20 -35 36 -51 l30 -31 -92 40
c-115 50 -315 154 -348 181 -30 24 -40 27 187 -53z m358 51 c34 -13 42 -36 20
-60 -26 -28 -77 -26 -112 5 l-28 25 24 20 c26 22 56 25 96 10z m-102 -85 c29
-26 30 -52 3 -75 -19 -15 -46 24 -46 67 0 39 6 40 43 8z m171 -1 c3 -9 6 -35
6 -59 0 -67 -6 -75 -57 -75 -24 0 -58 7 -74 16 -28 14 -29 17 -16 32 8 9 18
27 21 40 5 14 15 22 31 22 12 0 33 9 46 20 29 24 35 24 43 4z m697 -90 c38
-34 14 -74 -46 -74 -29 0 -85 48 -85 73 0 31 97 32 131 1z m-129 -61 c23 -25
17 -57 -12 -73 -35 -18 -52 42 -28 96 8 16 14 21 16 13 3 -8 13 -24 24 -36z
m-433 1 l89 -27 -40 -38 -40 -38 -117 44 c-114 43 -115 44 -69 44 37 1 51 6
60 21 16 25 12 25 117 -6z m586 -145 c-15 -28 -20 -31 -52 -26 -20 4 -53 17
-74 31 l-37 25 33 36 c26 27 42 35 67 35 19 0 43 6 54 14 18 14 19 12 22 -34
2 -31 -3 -61 -13 -81z m-445 67 c0 -47 -10 -56 -56 -56 -24 0 -44 3 -44 8 1
15 36 52 60 61 37 14 40 13 40 -13z m153 -34 c28 -28 28 -30 13 -60 -15 -29
-82 -92 -98 -92 -5 0 -8 15 -8 34 0 23 -8 42 -24 57 -19 18 -22 27 -14 42 5
10 10 31 10 47 l1 28 45 -14 c25 -7 59 -26 75 -42z m924 38 c58 -35 60 -70 6
-98 -50 -27 -120 1 -143 58 -12 29 -12 34 5 46 27 20 95 17 132 -6z m-798 -72
c60 -53 129 -72 170 -46 15 9 40 6 125 -18 59 -16 103 -30 99 -31 -4 -1 -25
-4 -45 -8 -21 -3 -51 -18 -68 -32 l-31 -26 -165 48 c-91 27 -167 52 -169 55
-3 4 0 22 6 39 9 24 8 35 -2 48 -24 29 40 6 80 -29z m631 30 c0 -6 12 -26 26
-45 29 -38 26 -65 -12 -90 -17 -11 -28 -13 -35 -6 -17 17 -23 90 -9 123 12 30
30 41 30 18z m-906 -69 c22 -17 27 -28 24 -58 -3 -35 -4 -36 -38 -33 -50 4
-113 72 -94 103 10 17 81 10 108 -12z m9331 -1 c-31 -103 -129 -196 -252 -237
-59 -20 -204 -38 -221 -27 -5 3 -4 24 3 53 12 48 12 48 116 102 107 57 296
130 337 130 20 1 22 -3 17 -21z m-8187 -62 c-7 -87 -29 -126 -71 -126 -35 0
-127 41 -148 66 -10 12 -8 18 9 30 12 8 29 28 37 43 13 26 18 28 57 24 31 -3
51 1 73 15 17 11 34 17 39 14 5 -2 6 -32 4 -66z m681 8 c58 -34 61 -73 9 -100
-50 -26 -114 0 -144 58 -15 30 -15 32 2 45 25 18 100 16 133 -3z m-128 -99
c17 -16 17 -20 4 -46 -19 -36 -49 -53 -63 -36 -20 25 -23 74 -6 116 l17 42 14
-30 c8 -16 23 -37 34 -46z m-959 55 c20 -6 47 -19 59 -29 21 -17 22 -21 11
-57 -6 -22 -26 -54 -43 -72 l-31 -34 -18 40 c-10 22 -27 45 -38 51 -16 8 -20
20 -19 61 1 56 8 59 79 40z m170 -46 c74 -67 187 -97 219 -58 9 11 22 14 48 9
20 -4 39 -9 43 -11 4 -3 -12 -22 -35 -44 l-43 -39 -151 41 -151 41 5 37 c4 30
1 41 -18 58 l-22 22 32 -10 c18 -5 51 -25 73 -46z m-279 26 c10 -38 -3 -55
-49 -66 -39 -9 -44 -8 -44 7 0 21 53 79 73 79 8 0 17 -9 20 -20z m1248 -195
c-16 -37 -25 -45 -46 -45 -33 0 -90 24 -132 56 l-33 25 29 25 c17 14 32 33 36
43 4 14 16 17 54 17 36 -1 57 5 78 20 l28 21 3 -58 c2 -42 -3 -72 -17 -104z
m-1210 75 c41 -41 37 -74 -10 -78 -46 -5 -89 15 -107 50 -17 34 -17 33 16 47
43 17 70 12 101 -19z m778 -19 c34 -18 41 -26 41 -52 0 -38 -23 -85 -63 -126
-37 -40 -47 -41 -47 -7 0 17 -13 39 -37 63 -33 33 -36 41 -37 95 l-1 58 51 -5
c28 -3 70 -15 93 -26z m-173 -6 c10 -39 -3 -75 -27 -75 -11 0 -35 -7 -54 -14
-39 -17 -42 -11 -21 38 14 34 59 76 82 76 8 0 16 -11 20 -25z m1243 -23 c19
-9 41 -27 49 -39 13 -20 12 -24 -12 -48 -44 -44 -130 -26 -161 35 -20 39 -19
49 8 60 35 14 79 11 116 -8z m-895 -32 c33 -10 86 -30 116 -44 30 -14 71 -26
90 -26 19 0 62 -9 95 -19 l60 -18 -40 -17 c-22 -9 -50 -26 -62 -38 l-22 -20
-78 25 c-43 14 -124 40 -181 57 -93 28 -101 33 -92 50 5 10 10 33 10 50 0 27
3 30 21 25 12 -4 49 -15 83 -25z m774 -73 c15 -16 15 -21 2 -44 -21 -37 -46
-51 -62 -35 -17 17 -17 114 1 136 13 15 15 14 28 -11 8 -16 22 -36 31 -46z
m-1072 -8 c17 -16 24 -33 24 -60 0 -31 -4 -38 -25 -43 -60 -15 -155 42 -155
94 0 43 113 49 156 9z m1272 -63 c-6 -66 -27 -120 -52 -129 -23 -9 -102 18
-142 48 l-35 27 36 39 c19 21 35 42 35 47 0 4 22 6 48 4 36 -3 54 1 72 16 14
11 29 18 34 15 5 -3 6 -33 4 -67z m-440 -12 c28 -11 32 -18 32 -50 0 -45 -30
-111 -65 -144 l-25 -23 0 22 c0 25 -60 91 -82 91 -10 0 -13 9 -10 30 2 16 0
43 -6 59 -10 28 -9 30 16 34 38 5 101 -3 140 -19z m-178 -50 c0 -36 -11 -54
-32 -54 -10 0 -33 -7 -50 -16 l-31 -16 6 38 c4 27 17 49 43 73 35 32 38 33 51
16 7 -11 13 -29 13 -41z m320 1 c30 -10 64 -25 75 -35 43 -38 109 -63 170 -65
62 -1 145 -22 145 -36 0 -4 -9 -10 -20 -14 -11 -3 -33 -22 -49 -41 l-29 -36
-193 71 c-134 48 -193 74 -190 83 3 7 6 32 9 56 2 27 8 42 16 39 6 -2 36 -12
66 -22z m-247 -117 c11 -13 17 -34 15 -52 -3 -30 -5 -31 -56 -34 -59 -3 -90
11 -118 54 -15 23 -16 27 -2 41 38 37 127 32 161 -9z m699 -55 c3 -10 1 -32
-4 -50 -8 -30 -11 -31 -66 -35 -31 -2 -59 -3 -61 -1 -11 7 39 68 69 84 43 24
56 24 62 2z m136 -20 c58 -27 77 -52 68 -89 -8 -31 -71 -101 -108 -120 l-28
-15 0 40 c0 31 -7 49 -31 76 -26 29 -29 38 -19 50 7 8 13 33 14 55 1 37 2 39
26 34 14 -3 49 -17 78 -31z m259 -112 c235 -94 373 -155 608 -272 222 -109
397 -204 360 -195 -11 3 -151 36 -311 75 -247 59 -305 76 -380 114 -81 41
-402 185 -460 207 l-24 9 25 37 c14 20 25 47 25 60 0 13 2 24 5 24 3 0 71 -27
152 -59z m-380 -15 c28 -33 32 -100 7 -110 -50 -19 -154 55 -154 109 0 30 13
35 74 31 39 -3 55 -9 73 -30z m3453 -697 c0 -66 2 -65 -202 -52 -100 6 -189
12 -196 12 -7 1 -11 5 -8 10 3 4 45 11 93 15 48 4 133 15 188 25 55 10 106 19
113 20 7 0 12 -11 12 -30z m-410 -459 c1828 -96 3504 -476 5469 -1239 471
-183 924 -376 1054 -449 l98 -55 -43 -44 c-23 -23 -47 -43 -53 -43 -6 0 -42
18 -80 41 -123 72 -809 355 -1335 552 -1560 582 -3004 929 -4415 1061 -554 52
-1022 70 -1645 63 -489 -6 -631 -12 -1050 -42 -1530 -112 -3222 -459 -4565
-935 -554 -196 -1258 -502 -1470 -638 l-80 -51 -42 41 c-24 23 -43 45 -43 48
0 14 200 131 339 198 600 287 1208 521 1911 733 1464 443 3091 711 4660 769
271 10 1019 4 1290 -10z m-638 -510 c10 -36 33 -122 52 -192 l34 -128 -54 0
-53 0 -11 40 c-11 40 -11 40 -60 40 -49 0 -49 0 -60 -40 -11 -39 -12 -40 -56
-40 -35 0 -45 3 -41 14 3 7 28 89 57 182 28 93 53 175 55 182 3 9 22 12 62 10
l58 -3 17 -65z m-502 23 c37 -41 46 -89 27 -136 -18 -42 -58 -66 -128 -74
l-49 -6 0 -68 0 -69 -54 0 -54 0 -7 186 c-6 152 -5 188 6 196 8 5 63 7 122 6
108 -3 109 -3 137 -35z m1008 27 l42 0 0 -45 0 -45 -40 0 -40 0 0 -129 c0 -71
-3 -136 -6 -145 -4 -12 -20 -16 -55 -16 l-48 0 6 150 6 150 -36 0 -37 0 0 46
0 47 83 -6 c45 -4 101 -7 125 -7z m-1559 -152 c14 -170 6 -204 -51 -234 -49
-27 -148 -25 -185 2 -39 29 -50 69 -58 227 l-7 137 55 0 54 0 8 -130 c5 -103
11 -135 25 -152 15 -19 22 -21 46 -12 l29 10 -3 146 -4 147 39 3 c21 2 39 3
40 3 0 0 6 -66 12 -147z m2089 126 l53 -6 -6 -42 c-4 -22 -8 -42 -9 -42 0 -1
-35 2 -76 6 -41 4 -75 7 -76 6 -1 -1 -4 -13 -7 -27 -8 -31 9 -39 81 -39 l42 0
0 -43 0 -44 -67 1 c-66 1 -68 0 -71 -25 -4 -30 15 -39 85 -39 63 0 73 -7 73
-50 0 -22 -3 -41 -7 -43 -12 -6 -251 17 -259 25 -6 6 7 191 22 327 l7 53 81
-6 c44 -4 105 -9 134 -12z m-2707 -34 c23 -13 49 -61 49 -93 0 -13 -10 -37
-22 -52 -17 -22 -19 -30 -9 -33 33 -11 51 -42 51 -91 0 -86 -29 -102 -201
-116 l-86 -7 -14 173 c-8 96 -14 183 -14 194 0 17 9 21 60 26 103 10 166 9
186 -1z m3104 4 c14 -3 34 -36 64 -102 25 -53 48 -101 52 -105 3 -5 7 30 8 77
2 111 4 116 52 116 46 0 45 4 29 -175 -20 -227 -17 -215 -54 -215 -18 0 -39 6
-48 13 -13 10 -94 178 -110 227 -3 8 -8 -25 -12 -75 -11 -145 -11 -145 -57
-145 -46 0 -45 -4 -29 175 20 226 17 215 53 215 18 0 41 -3 52 -6z m-3651
-231 c42 -98 76 -184 76 -190 0 -8 -14 -13 -34 -13 -19 0 -41 -3 -50 -6 -11
-4 -20 5 -31 34 -16 39 -17 40 -58 35 -51 -7 -53 -9 -64 -53 -8 -32 -13 -35
-50 -38 l-40 -3 13 83 c7 46 21 133 30 193 9 61 18 112 21 115 2 2 25 7 51 11
26 3 50 7 53 8 4 0 41 -79 83 -176z m4534 121 c50 -32 55 -102 11 -146 l-30
-31 20 -21 c31 -33 28 -96 -5 -135 -30 -36 -62 -39 -202 -19 l-82 11 5 31 c2
17 14 99 25 181 12 83 22 155 24 161 5 15 204 -13 234 -32z m-5098 -18 c0 -2
-13 -35 -29 -74 l-29 -71 74 -107 c41 -60 71 -111 66 -115 -4 -4 -29 -10 -57
-13 l-50 -7 -42 68 -42 68 -15 -36 c-11 -26 -12 -46 -6 -74 5 -22 8 -41 6 -42
-1 -2 -24 -7 -49 -12 -44 -8 -48 -7 -52 13 -10 39 -65 360 -62 362 1 1 23 4
48 8 53 8 54 8 64 -77 4 -32 11 -57 15 -57 4 0 20 34 36 76 19 49 36 79 49 85
20 8 75 12 75 5z m5619 -51 c5 -6 52 -387 48 -392 -3 -2 -26 0 -53 4 -48 8
-49 9 -52 46 -3 40 -5 42 -64 52 -36 6 -39 4 -55 -30 -17 -35 -19 -37 -57 -30
-22 3 -42 7 -43 9 -2 2 20 52 48 112 28 60 66 141 84 180 l33 72 53 -10 c30
-5 56 -11 58 -13z m-6289 -242 c18 -98 35 -183 37 -189 2 -7 -12 -14 -34 -18
-21 -4 -45 -9 -55 -12 -13 -4 -18 8 -29 66 -7 39 -15 73 -19 75 -4 2 -24 2
-45 -2 -36 -6 -37 -7 -31 -42 4 -20 9 -54 12 -77 l6 -41 -50 -10 -51 -10 -10
46 c-27 128 -63 332 -59 336 2 3 26 6 53 7 l49 3 12 -58 c6 -32 14 -60 17 -64
3 -3 23 -2 43 1 l36 7 -7 52 c-13 89 -13 91 20 98 74 16 68 27 105 -168z
m6718 167 l49 -11 34 -109 c19 -59 36 -106 38 -105 2 2 11 44 20 92 l17 88 37
-1 c21 -1 41 -4 44 -8 5 -5 -64 -362 -72 -374 -6 -7 -87 12 -90 22 -2 6 -21
65 -42 131 l-37 120 -8 -45 c-4 -25 -15 -77 -23 -116 l-16 -72 -35 8 c-20 5
-38 11 -41 14 -6 5 67 376 74 376 1 0 24 -5 51 -10z m568 -120 c42 -10 42 -11
55 -75 7 -36 16 -65 20 -65 5 0 65 69 85 98 1 2 23 -2 48 -10 l45 -13 -82 -96
c-77 -89 -84 -100 -101 -172 -10 -42 -20 -77 -22 -77 -3 0 -26 5 -50 11 -39
10 -45 15 -41 33 2 12 10 48 17 82 13 57 12 67 -17 183 -27 105 -29 121 -14
117 9 -3 35 -10 57 -16z m-7890 -184 l101 -174 -43 -11 c-63 -16 -70 -14 -84
20 -13 29 -15 31 -54 25 -47 -8 -66 -27 -66 -67 0 -24 -6 -30 -37 -38 -20 -6
-39 -9 -41 -6 -2 2 0 93 5 201 l8 198 45 12 c25 7 50 12 55 13 6 1 56 -77 111
-173z m8472 43 c18 -7 22 -14 17 -30 -29 -89 -65 -228 -65 -247 0 -28 42 -47
70 -32 18 10 32 47 76 208 18 65 23 68 71 51 l31 -10 -43 -145 c-23 -79 -50
-153 -60 -164 -52 -57 -195 -36 -242 36 -24 37 -20 73 22 223 l38 132 31 -7
c17 -4 41 -10 54 -15z m-9039 -37 c39 -39 48 -94 22 -138 l-21 -35 51 -64 c28
-36 48 -69 45 -74 -10 -15 -107 -35 -115 -23 -44 70 -79 112 -93 112 -22 0
-22 -13 -3 -76 8 -27 15 -54 15 -61 0 -11 -90 -45 -98 -38 -4 4 -102 349 -102
361 0 15 165 62 223 63 41 1 53 -4 76 -27z m-556 -142 c4 -18 5 -36 0 -40 -4
-4 -38 -17 -75 -29 -66 -22 -67 -22 -57 -51 l10 -28 56 19 c31 10 59 19 63 19
7 0 32 -72 26 -77 -1 -2 -27 -12 -57 -22 -49 -17 -54 -21 -52 -46 1 -15 4 -30
7 -32 3 -3 39 6 81 20 l76 26 8 -22 c25 -67 32 -60 -106 -105 -70 -23 -128
-40 -129 -39 -1 1 -28 84 -62 184 l-60 183 121 39 c67 21 126 38 132 37 5 -1
13 -17 18 -36z m10145 19 l62 -21 -7 -99 c-3 -54 -4 -99 -1 -99 3 0 28 38 56
84 l52 84 65 -21 c36 -12 65 -25 65 -30 0 -30 -114 -357 -125 -357 -10 0 -75
19 -82 25 -2 1 12 46 30 101 55 161 52 166 -24 41 -68 -110 -74 -118 -98 -112
-14 4 -30 10 -34 14 -5 5 -4 66 2 137 6 70 8 130 6 132 -2 2 -20 -49 -40 -114
-21 -66 -40 -122 -44 -125 -10 -10 -71 10 -71 23 0 19 113 358 120 358 3 0 34
-9 68 -21z m-4258 -58 c1871 -125 3447 -494 5120 -1198 91 -38 225 -93 298
-122 72 -29 132 -56 132 -60 0 -3 -24 -23 -53 -44 -36 -26 -59 -36 -74 -32
-12 3 -120 46 -240 96 -566 235 -882 356 -1268 484 -3285 1092 -6889 1026
-10120 -183 -302 -113 -570 -224 -747 -309 l-176 -86 -51 39 c-27 22 -50 42
-51 45 0 9 387 194 530 253 1620 663 3312 1036 5100 1125 233 12 1391 6 1600
-8z m-6392 -281 c61 -85 112 -157 112 -161 0 -3 -21 -14 -47 -24 l-46 -18 -26
32 c-26 31 -26 32 -66 18 -37 -13 -40 -17 -43 -56 -3 -37 -7 -43 -39 -56 -20
-9 -38 -14 -40 -12 -6 7 -33 391 -27 396 9 10 89 39 99 37 6 -2 61 -72 123
-156z m11407 78 c5 -4 -22 -389 -27 -394 -3 -2 -26 3 -51 12 -46 16 -47 17
-47 58 0 40 -2 42 -44 58 l-44 16 -23 -33 c-21 -30 -25 -32 -53 -22 -59 19
-67 2 146 294 l38 53 51 -20 c28 -10 53 -20 54 -22z m-13935 -210 c1797 -2013
4350 -3284 7100 -3532 356 -33 548 -40 980 -40 450 0 637 8 1035 45 2234 205
4376 1107 6060 2552 340 292 747 691 1014 994 l124 141 79 -61 c43 -33 78 -63
78 -67 0 -13 -278 -318 -450 -494 -1332 -1362 -2991 -2348 -4850 -2881 -795
-228 -1580 -360 -2480 -416 -236 -15 -924 -15 -1190 0 -2041 115 -3940 742
-5605 1851 -614 408 -1135 836 -1665 1369 -216 217 -531 557 -537 579 -2 9
138 120 152 121 6 1 76 -72 155 -161z m1943 71 c118 -61 160 -234 76 -318 -27
-27 -185 -99 -195 -89 -6 7 -144 351 -141 354 1 1 36 16 77 33 78 31 146 39
183 20z m12477 -41 c51 -27 77 -59 86 -107 6 -30 5 -33 -10 -28 -10 4 -33 7
-52 7 -23 0 -34 5 -34 14 0 22 -29 46 -56 46 -37 0 -31 -34 10 -60 19 -11 49
-37 66 -57 29 -32 32 -41 27 -81 -3 -32 -13 -53 -36 -76 -28 -27 -38 -31 -89
-31 -100 0 -182 64 -182 141 0 36 2 38 63 28 27 -5 37 -12 37 -25 0 -21 45
-59 70 -59 39 0 27 29 -34 83 -40 36 -65 66 -69 84 -13 70 49 143 122 143 20
0 57 -10 81 -22z m-6373 -390 c-4 -246 -5 -256 -37 -383 -28 -108 -34 -149
-34 -245 -1 -107 1 -120 28 -178 51 -110 165 -192 266 -192 101 0 207 77 262
188 31 64 33 72 32 177 0 87 -7 138 -33 244 -41 173 -50 269 -43 469 l5 162
112 0 112 0 6 -182 c6 -207 12 -235 94 -483 l57 -170 0 -145 c1 -172 -11 -229
-81 -370 -79 -163 -231 -294 -388 -335 -262 -68 -539 76 -669 348 -57 120 -70
183 -71 347 0 165 11 219 75 362 76 168 85 217 83 441 l-2 197 115 0 116 0 -5
-252z m-333 105 c10 -196 -12 -321 -80 -454 -94 -187 -111 -478 -39 -690 60
-175 187 -346 318 -427 44 -27 56 -38 42 -41 -32 -6 -456 19 -680 40 -1217
112 -2377 450 -3407 990 -87 46 -156 84 -155 85 2 2 105 32 230 68 815 235
1658 399 2517 490 403 43 835 72 1101 75 l146 1 7 -137z m1296 112 c582 -30
1401 -141 2070 -281 411 -86 1019 -244 1370 -357 l105 -34 -195 -98 c-966
-486 -2056 -795 -3200 -909 -212 -21 -420 -36 -509 -36 l-73 0 59 39 c214 143
352 423 353 713 0 122 -18 214 -70 364 -69 198 -81 261 -87 447 l-6 168 34 -5
c19 -3 86 -8 149 -11z m-10105 -647 c1049 -1184 2277 -2123 3690 -2823 2025
-1003 4270 -1429 6530 -1239 2685 224 5223 1318 7195 3100 323 292 695 670
960 975 l92 107 79 -61 c44 -33 79 -63 79 -66 0 -25 -460 -520 -708 -763
-1150 -1124 -2506 -2010 -4004 -2614 -1909 -771 -3964 -1062 -6018 -854 -1900
193 -3752 825 -5360 1827 -855 534 -1673 1197 -2344 1901 -195 204 -461 501
-461 513 0 7 138 123 151 128 1 1 55 -59 119 -131z m4720 -12 c46 -31 373
-200 535 -276 973 -455 2004 -732 3110 -834 900 -84 1846 -42 2710 120 897
168 1681 431 2460 825 l236 119 230 -81 c126 -44 245 -86 264 -93 l34 -13 -69
-40 c-247 -143 -654 -347 -930 -465 -1055 -452 -2117 -701 -3365 -790 -230
-16 -1070 -16 -1300 0 -1252 89 -2292 333 -3364 789 -302 128 -943 458 -1096
563 -22 15 -10 20 236 103 143 47 266 87 274 87 9 0 24 -6 35 -14z m-522 -290
c269 -158 494 -277 746 -395 1159 -545 2409 -854 3765 -931 230 -13 922 -13
1152 0 1274 73 2466 353 3559 837 280 124 640 308 884 450 l94 55 96 -37 c106
-42 416 -170 499 -206 l54 -24 -113 -74 c-1321 -864 -2820 -1421 -4359 -1620
-747 -97 -1542 -117 -2265 -56 -1773 149 -3441 725 -4907 1695 l-128 84 153
65 c188 79 597 239 615 240 7 1 77 -37 155 -83z m-2556 -164 c114 -112 134
-152 113 -218 -35 -105 -137 -150 -237 -104 l-42 19 6 -44 c6 -44 -33 -275
-46 -275 -3 1 -27 20 -53 44 l-47 44 19 103 c27 137 27 184 3 217 -41 55 -46
54 -140 -40 l-88 -86 -43 36 -42 37 212 212 212 212 35 -29 c20 -16 82 -73
138 -128z m15439 -102 c142 -62 263 -115 267 -120 5 -4 -13 -26 -38 -48 l-46
-40 -64 30 c-58 27 -66 28 -85 15 -34 -23 -160 -148 -160 -158 0 -5 12 -33 27
-64 l27 -55 -45 -45 -45 -45 -127 292 -127 293 47 41 c45 40 48 41 79 28 17
-7 147 -63 290 -124z m-409 -391 c65 -70 80 -94 94 -142 26 -92 -90 -227 -196
-227 -37 0 -104 30 -127 57 -17 18 -16 21 21 57 l40 39 27 -22 c34 -27 64 -27
98 0 38 30 34 67 -11 122 -21 24 -92 102 -158 172 l-119 127 44 38 45 38 90
-96 c50 -54 118 -127 152 -163z m-14575 119 l36 -33 -95 -295 c-52 -162 -97
-297 -99 -299 -2 -2 -26 13 -53 34 l-49 38 23 68 24 69 -67 53 c-37 29 -81 64
-98 76 l-32 23 -62 -36 -62 -36 -50 36 c-45 34 -48 38 -31 48 10 6 137 77 283
157 179 99 270 144 280 139 8 -5 31 -23 52 -42z m521 -386 c31 -24 64 -56 72
-72 34 -66 5 -170 -60 -209 -46 -28 -85 -33 -138 -17 -45 13 -48 13 -41 -2 12
-31 17 -120 9 -217 l-7 -95 -56 41 -57 40 4 133 c2 92 -1 141 -9 157 -13 24
-59 68 -72 69 -4 0 -40 -43 -79 -95 -39 -52 -74 -95 -77 -95 -17 0 -91 57 -87
68 2 7 82 115 177 241 l173 228 95 -65 c52 -36 121 -86 153 -110z m13632 -34
c132 -71 243 -133 247 -137 5 -4 -14 -24 -41 -44 l-49 -37 -62 35 c-34 19 -64
35 -66 35 -3 0 -46 -32 -97 -72 -51 -39 -94 -73 -96 -75 -2 -1 7 -33 21 -70
l25 -68 -48 -38 c-26 -20 -50 -34 -52 -30 -2 5 -48 140 -102 301 l-97 294 21
15 c12 8 34 25 49 38 l27 23 40 -20 c22 -12 148 -79 280 -150z m-586 -139 c89
-50 112 -150 55 -232 l-32 -45 47 -4 c25 -3 97 -26 159 -53 l113 -48 -60 -38
-60 -39 -123 50 c-136 55 -174 60 -224 29 l-34 -20 70 -105 70 -104 -47 -30
-48 -30 -22 28 c-34 41 -315 463 -311 466 17 16 262 163 293 177 53 24 109 24
154 -2z m-12571 -131 c12 -6 22 -14 22 -18 0 -10 -120 -594 -125 -607 -3 -9
-20 -3 -55 19 l-52 32 8 46 c17 101 19 97 -91 166 l-99 63 -61 -43 -60 -43
-45 28 c-25 15 -45 33 -45 38 0 6 117 91 260 190 l260 180 30 -20 c16 -11 40
-25 53 -31z m12039 -169 c65 -24 123 -109 123 -180 0 -77 -33 -114 -177 -203
-24 -15 -43 -30 -43 -34 0 -5 25 -48 55 -96 51 -81 54 -89 38 -101 -28 -20
-83 -49 -86 -44 -15 19 -307 492 -307 497 0 8 218 134 270 156 42 18 88 20
127 5z m-11589 -95 c106 -52 164 -135 148 -216 -11 -60 -18 -63 -73 -32 -48
27 -50 30 -46 64 4 31 0 41 -26 68 -65 65 -161 66 -161 2 0 -24 17 -48 85
-120 92 -96 105 -119 105 -181 0 -50 -19 -87 -64 -127 -60 -53 -143 -55 -241
-7 -118 57 -177 151 -156 246 13 59 21 63 73 38 l46 -22 -2 -53 c-1 -47 3 -57
30 -84 75 -76 194 -65 194 17 0 14 -31 55 -90 117 -94 101 -108 131 -97 201 8
46 34 80 82 105 51 27 117 21 193 -16z m527 -291 c31 -15 55 -34 55 -43 0 -22
-60 -571 -65 -597 -5 -21 -5 -21 -60 9 l-56 30 7 61 c3 34 7 66 8 70 0 4 -47
33 -106 65 -79 42 -111 54 -122 47 -8 -5 -34 -27 -59 -48 l-45 -38 -51 28
c-28 15 -50 31 -48 34 2 6 477 406 484 408 2 1 27 -11 58 -26z m10382 -29 c23
-13 45 -28 48 -34 3 -5 -15 -24 -40 -43 l-45 -35 -37 19 c-45 23 -72 24 -121
4 -110 -46 -139 -138 -82 -253 83 -166 233 -187 344 -49 l30 38 -19 34 c-10
19 -23 35 -28 35 -6 0 -35 -14 -65 -31 -30 -17 -55 -29 -57 -27 -1 2 -12 21
-23 44 l-20 40 115 58 c63 31 117 56 118 54 1 -2 28 -48 58 -103 l56 -99 -22
-39 c-31 -56 -119 -134 -183 -164 -185 -85 -372 5 -436 209 -22 72 -22 99 -3
164 19 66 70 123 143 162 108 57 189 62 269 16z m-10000 -149 c26 -10 43 -24
46 -38 3 -12 15 -112 27 -222 13 -110 26 -204 30 -208 4 -4 44 71 90 168 46
96 85 175 87 175 5 0 87 -41 92 -46 2 -2 -53 -123 -124 -268 l-128 -264 -49
21 c-28 11 -54 30 -58 41 -5 12 -18 104 -30 206 -12 102 -25 195 -28 208 -6
18 -23 -11 -91 -152 l-83 -175 -47 22 c-25 12 -48 23 -50 24 -8 5 255 533 264
529 5 -2 29 -11 52 -21z m9515 -308 l126 -262 -46 -22 c-26 -12 -53 -22 -60
-22 -7 -1 -98 53 -202 119 -104 66 -192 120 -194 120 -3 0 33 -78 79 -172 l83
-173 -42 -22 c-22 -12 -45 -22 -49 -23 -7 0 -255 498 -260 523 -1 5 21 20 49
33 l51 22 197 -125 c108 -69 198 -124 200 -122 2 2 -34 82 -80 178 -46 96 -83
175 -82 175 2 1 23 11 48 23 25 11 47 19 50 16 2 -2 62 -122 132 -266z m-8951
64 l36 -16 -114 -271 -115 -272 -52 21 c-28 11 -52 22 -54 23 -2 1 48 124 110
273 125 298 109 279 189 242z m8388 -288 c61 -146 108 -269 104 -273 -4 -4
-28 -15 -52 -24 -36 -14 -46 -15 -52 -4 -14 22 -219 515 -219 525 0 11 64 40
91 42 11 1 46 -72 128 -266z m-8196 211 c25 -8 48 -23 51 -32 8 -30 96 -421
96 -428 0 -27 25 33 80 187 l62 176 49 -15 c27 -9 49 -21 49 -28 0 -15 -185
-532 -193 -540 -3 -3 -30 2 -59 11 l-54 18 -48 206 c-27 113 -52 212 -56 220
-4 8 -31 -55 -70 -164 -70 -196 -62 -187 -142 -156 l-27 10 44 126 c151 422
152 425 163 425 5 0 29 -7 55 -16z m7870 -36 c70 -185 187 -532 181 -538 -5
-4 -30 -14 -56 -23 l-48 -16 -177 140 c-98 77 -179 136 -180 132 -2 -5 24 -84
57 -177 33 -92 60 -169 60 -171 0 -5 -101 -38 -104 -34 -6 9 -196 552 -194
554 2 1 26 10 55 19 l51 17 183 -145 c101 -80 185 -143 187 -141 2 2 -23 79
-56 172 -34 92 -62 174 -64 182 -2 9 12 19 37 27 52 16 62 17 68 2z m-7050
-218 c100 -37 157 -105 157 -185 0 -30 -3 -36 -16 -31 -9 3 -36 6 -60 6 -40 0
-44 2 -44 25 0 38 -57 92 -110 106 -69 18 -117 5 -166 -45 -72 -72 -96 -218
-47 -284 39 -53 69 -67 151 -70 90 -4 113 7 115 58 2 32 1 34 -53 47 -30 8
-58 18 -63 22 -4 4 -1 25 7 47 10 29 18 38 32 36 25 -5 227 -61 230 -65 2 -1
-12 -52 -30 -112 -38 -125 -42 -128 -156 -140 -69 -7 -175 11 -230 40 -48 25
-100 75 -122 119 -29 57 -35 148 -13 222 57 198 221 278 418 204z m6498 -250
c107 -132 195 -243 197 -248 1 -5 -23 -16 -55 -25 -65 -19 -60 -21 -124 64
l-27 34 -66 -17 c-36 -10 -90 -24 -119 -33 l-54 -15 -9 -72 -9 -72 -57 -17
c-32 -9 -58 -14 -58 -10 0 45 60 615 65 619 9 10 76 30 101 31 17 1 67 -55
215 -239z m-631 81 c46 -33 70 -80 70 -135 0 -62 -23 -104 -76 -136 l-37 -24
39 -17 c32 -13 224 -171 224 -184 0 -2 -26 -9 -57 -15 -32 -7 -62 -14 -68 -16
-5 -2 -55 35 -110 82 -55 47 -111 90 -125 96 -37 14 -110 1 -110 -20 0 -9 13
-65 29 -123 l29 -106 -55 -13 c-30 -6 -57 -10 -59 -7 -6 6 -11 25 -94 343
l-57 222 131 31 c236 56 275 59 326 22z m-5127 -20 c221 -55 261 -83 261 -184
0 -94 -54 -156 -143 -165 -54 -5 -61 -11 -35 -33 23 -19 43 -62 80 -172 l33
-99 -31 6 c-108 21 -100 14 -154 152 -53 138 -75 164 -135 167 l-34 2 -28
-110 c-16 -60 -30 -112 -32 -113 -2 -2 -29 2 -59 9 -44 9 -55 16 -52 28 3 9
35 133 72 276 36 143 68 263 71 268 6 11 17 9 186 -32z m4547 -340 c95 -140
174 -259 176 -266 3 -7 -18 -15 -57 -21 l-61 -10 -39 58 c-23 33 -47 58 -57
58 -17 0 -224 -39 -228 -43 -1 -1 -8 -33 -15 -72 l-14 -70 -53 -8 c-30 -5 -56
-6 -59 -3 -5 4 104 607 110 612 4 3 112 21 119 20 4 0 84 -115 178 -255z
m-3775 -99 c44 -223 58 -311 49 -308 -8 3 -36 8 -64 12 -48 6 -50 8 -56 43
-20 115 -11 104 -99 123 -44 9 -100 19 -125 23 l-45 6 -37 -61 c-28 -46 -42
-60 -55 -56 -10 2 -37 8 -60 11 -24 4 -43 8 -43 10 0 3 78 123 174 268 l173
264 63 -11 63 -12 62 -312z m3271 9 l-30 -300 -61 -9 c-33 -4 -62 -7 -65 -6
-3 1 -45 95 -95 208 -49 113 -91 203 -94 200 -2 -2 -17 -101 -32 -220 -15
-119 -29 -218 -31 -220 -5 -5 -122 -23 -126 -19 -2 2 -55 128 -117 282 l-114
278 56 8 c31 5 59 5 64 0 6 -6 58 -136 140 -352 5 -13 11 -22 14 -20 2 3 15
94 29 203 14 110 27 200 29 202 8 8 132 23 139 16 4 -4 41 -88 83 -187 42 -99
79 -183 84 -188 4 -4 13 73 20 170 7 98 15 192 18 210 5 33 13 36 93 41 l26 2
-30 -299z m-2758 234 c85 -26 142 -89 142 -160 0 -23 -4 -25 -44 -25 -53 0
-76 8 -76 25 0 8 -11 27 -25 44 -42 49 -161 55 -186 10 -19 -36 0 -59 69 -91
225 -101 237 -112 237 -220 0 -59 -3 -70 -31 -105 -42 -52 -107 -75 -194 -69
-116 9 -183 40 -227 104 -19 30 -42 117 -32 126 2 2 29 1 61 -1 54 -5 56 -7
62 -38 11 -54 68 -95 136 -95 53 0 98 24 106 56 12 48 -8 68 -116 114 -148 63
-190 105 -190 191 0 56 33 107 84 130 51 23 153 25 224 4z m1974 -312 c14
-159 24 -290 22 -292 -2 -2 -28 -6 -58 -9 l-53 -4 -6 43 c-4 24 -16 154 -28
288 -24 273 -27 261 51 261 l46 0 26 -287z m-1402 260 c4 -4 47 -133 95 -287
47 -153 89 -285 92 -292 4 -11 -7 -14 -45 -14 -28 0 -57 3 -66 6 -9 3 -25 36
-36 74 l-20 67 -92 7 c-164 11 -154 14 -188 -54 l-30 -60 -55 0 c-29 0 -57 4
-60 10 -3 5 58 134 136 286 l142 277 60 -6 c32 -3 63 -9 67 -14z m1204 -20
c-4 -14 -33 -146 -64 -292 l-57 -266 -64 -3 -65 -3 -58 183 c-32 101 -63 199
-68 217 -7 25 -12 31 -18 20 -4 -7 -29 -107 -56 -221 l-48 -208 -46 0 c-25 0
-54 -3 -65 -6 -19 -5 -27 16 -103 283 -45 159 -82 292 -82 296 0 4 27 7 60 7
57 0 60 -1 66 -27 4 -16 28 -107 54 -203 54 -201 43 -205 100 35 17 72 35 147
41 168 l10 38 72 -3 71 -3 60 -199 c43 -141 62 -193 68 -180 4 10 21 93 38
184 17 91 33 175 35 188 5 20 11 22 65 22 60 0 60 0 54 -27z"/>
<path d="M10597 13784 c-79 -101 -117 -217 -117 -354 0 -152 46 -272 144 -377
281 -301 736 -68 736 377 0 41 -7 104 -15 139 -19 79 -75 187 -119 230 l-33
32 -64 -22 c-96 -33 -278 -38 -379 -9 -41 11 -84 23 -96 26 -15 4 -29 -5 -57
-42z"/>
<path d="M10589 12520 c-230 -235 -220 -661 21 -883 122 -113 274 -153 426
-112 287 78 451 439 348 767 -28 89 -106 212 -162 257 l-38 29 -59 -20 c-44
-16 -93 -22 -185 -25 -111 -4 -134 -2 -209 20 l-85 25 -57 -58z"/>
<path d="M10697 11196 c-216 -143 -286 -471 -155 -720 46 -86 132 -169 215
-209 62 -29 77 -32 163 -32 88 0 101 3 165 34 130 64 232 200 265 352 18 81 8
248 -19 324 -26 75 -98 182 -148 221 -85 67 -81 66 -262 67 l-166 2 -58 -39z"/>
<path d="M10725 9933 c-93 -50 -181 -158 -223 -276 -34 -95 -42 -244 -18 -338
79 -314 364 -470 621 -341 69 35 163 133 202 213 58 118 78 265 52 391 -27
132 -127 281 -230 341 -40 24 -49 25 -84 16 -39 -11 -247 -8 -275 4 -8 3 -28
-1 -45 -10z"/>
<path d="M10823 8516 c-141 -46 -251 -171 -288 -328 -53 -225 46 -458 234
-551 58 -28 75 -32 151 -32 76 0 93 3 152 33 118 58 203 174 234 320 17 85 17
130 -1 217 -43 202 -191 343 -368 351 -43 3 -89 -2 -114 -10z"/>
<path d="M10761 6550 c-7 -25 -14 -51 -16 -57 -3 -9 6 -13 25 -13 34 0 34 -1
16 65 l-13 50 -12 -45z"/>
<path d="M10200 6576 c0 -41 10 -50 49 -41 32 7 45 27 36 56 -5 14 -16 19 -46
19 -38 0 -39 -1 -39 -34z"/>
<path d="M9068 6553 c-12 -3 -18 -14 -18 -32 0 -36 3 -38 44 -33 39 5 56 33
36 57 -12 15 -29 17 -62 8z"/>
<path d="M9067 6403 c-10 -9 -8 -45 2 -62 6 -10 19 -12 44 -7 65 12 58 76 -8
76 -17 0 -35 -3 -38 -7z"/>
<path d="M8510 6435 c0 -11 -3 -37 -6 -57 -6 -35 -5 -38 18 -38 36 0 39 8 21
54 -20 50 -33 67 -33 41z"/>
<path d="M13027 6443 c-7 -37 -2 -43 38 -43 24 0 38 6 45 19 13 26 -11 51 -50
51 -22 0 -29 -5 -33 -27z"/>
<path d="M13010 6308 c0 -7 -3 -23 -6 -34 -5 -19 -1 -22 30 -26 20 -2 43 0 51
5 18 10 20 38 3 55 -16 16 -78 16 -78 0z"/>
<path d="M13593 6305 c-22 -52 -18 -65 20 -65 18 0 20 12 9 75 l-7 40 -22 -50z"/>
<path d="M6660 6065 c0 -46 3 -55 18 -55 40 1 44 15 16 63 -14 26 -28 47 -30
47 -2 0 -4 -25 -4 -55z"/>
<path d="M6077 6013 c-12 -3 -16 -10 -13 -20 3 -8 9 -25 12 -38 5 -21 9 -22
37 -14 41 12 60 36 46 60 -9 19 -40 23 -82 12z"/>
<path d="M5038 5590 c3 -39 8 -50 20 -50 38 1 42 15 14 58 -15 23 -29 42 -32
42 -3 0 -3 -22 -2 -50z"/>
<path d="M16450 5565 l-31 -45 26 -10 c15 -6 28 -10 30 -10 2 0 5 25 7 55 1
30 2 55 1 55 -1 0 -16 -20 -33 -45z"/>
<path d="M4483 5473 c-19 -7 -17 -19 18 -108 39 -97 41 -100 68 -85 34 18 42
52 25 109 -20 69 -66 103 -111 84z"/>
<path d="M2981 4186 l-52 -53 73 -67 c81 -74 109 -86 147 -65 40 23 55 62 37
97 -12 24 -135 142 -148 142 -2 0 -27 -24 -57 -54z"/>
<path d="M18396 4053 c20 -43 43 -93 51 -111 l14 -34 57 54 c31 29 58 56 60
60 3 7 -77 47 -185 94 l-33 14 36 -77z"/>
<path d="M3437 3704 c-53 -30 -95 -59 -93 -63 3 -4 32 -28 65 -55 l61 -47 11
28 c30 76 67 193 61 193 -4 0 -51 -25 -105 -56z"/>
<path d="M3916 3438 l-46 -62 48 -34 c124 -89 158 -97 202 -50 36 39 24 75
-42 128 -31 25 -70 53 -86 62 l-30 18 -46 -62z"/>
<path d="M17530 3452 c0 -10 69 -204 75 -210 2 -2 33 20 70 49 l66 52 -43 24
c-136 77 -168 94 -168 85z"/>
<path d="M17009 3159 c-46 -28 -85 -52 -86 -53 -5 -4 82 -125 89 -126 12 0
121 71 151 98 35 33 37 80 4 110 -35 33 -65 27 -158 -29z"/>
<path d="M4442 3004 c-51 -36 -92 -69 -92 -73 0 -6 88 -64 132 -88 6 -3 61
217 55 223 -1 2 -44 -26 -95 -62z"/>
<path d="M16551 2880 c-25 -12 -60 -30 -78 -41 -37 -23 -38 -20 24 -116 l34
-53 41 22 c64 36 118 91 118 121 0 32 -36 74 -70 82 -15 3 -44 -3 -69 -15z"/>
<path d="M5467 2414 c-48 -41 -87 -77 -87 -79 0 -7 141 -77 146 -73 6 6 36
219 32 224 -2 2 -43 -30 -91 -72z"/>
<path d="M13846 1589 c-3 -62 -5 -113 -4 -115 5 -5 158 41 158 47 0 11 -131
179 -140 179 -4 0 -10 -50 -14 -111z"/>
<path d="M13240 1599 c-47 -10 -90 -21 -96 -23 -8 -3 -6 -26 8 -78 11 -40 21
-74 22 -75 6 -7 193 50 208 64 24 21 24 85 1 105 -30 26 -54 27 -143 7z"/>
<path d="M8225 1578 c-9 -28 -34 -132 -32 -135 5 -4 186 -43 202 -43 27 0 65
47 65 80 0 45 -27 64 -123 88 -101 26 -106 26 -112 10z"/>
<path d="M12656 1430 c-8 -26 -37 -212 -33 -216 4 -4 157 23 163 29 2 1 -26
47 -61 102 -40 62 -66 94 -69 85z"/>
<path d="M8876 1324 c-40 -66 -55 -98 -47 -103 17 -11 142 -33 149 -27 6 7
-30 226 -37 226 -3 -1 -32 -44 -65 -96z"/>
<path d="M10050 1199 c-37 -76 -47 -105 -38 -110 15 -8 158 -18 158 -12 0 9
-62 218 -66 222 -2 2 -26 -43 -54 -100z"/>
</g>
</svg>
