<?xml version="1.0" standalone="no"?>
<!DOCTYPE svg PUBLIC "-//W3C//DTD SVG 20010904//EN"
 "http://www.w3.org/TR/2001/REC-SVG-20010904/DTD/svg10.dtd">
<svg version="1.0" xmlns="http://www.w3.org/2000/svg"
 width="500.000000pt" height="500.000000pt" viewBox="0 0 500.000000 500.000000"
 preserveAspectRatio="xMidYMid meet">

<g transform="translate(0.000000,500.000000) scale(0.100000,-0.100000)"
fill="#000000" stroke="none">
<path d="M3201 2704 c-26 -33 -51 -115 -51 -166 0 -22 -5 -40 -12 -42 -7 -2
-35 -10 -61 -16 -51 -14 -107 -57 -107 -84 0 -10 11 -28 25 -41 18 -19 35 -25
68 -25 l43 0 0 -212 c-1 -202 0 -215 21 -255 30 -56 71 -83 146 -96 76 -13
145 -3 189 26 28 19 34 30 36 66 5 66 -17 85 -90 77 -53 -6 -60 -5 -82 17 -33
33 -38 87 -23 241 l12 129 60 17 c104 28 141 68 110 117 -16 24 -70 43 -122
43 l-33 0 6 59 c12 112 -16 171 -81 171 -24 0 -39 -7 -54 -26z"/>
<path d="M3756 2535 c-119 -42 -215 -235 -203 -410 11 -166 111 -302 234 -321
122 -18 291 102 295 210 3 73 -54 86 -142 32 -31 -19 -68 -38 -83 -41 -36 -9
-82 10 -95 40 -10 21 -8 23 26 30 101 18 197 89 235 174 25 56 27 144 5 186
-51 96 -166 138 -272 100z m125 -182 c16 -44 -27 -89 -103 -108 -24 -6 -28 -4
-28 14 0 29 36 97 57 110 33 19 63 13 74 -16z"/>
<path d="M545 2523 c-16 -8 -49 -34 -72 -56 l-43 -41 0 27 c0 60 -71 87 -115
43 -37 -37 -47 -89 -52 -281 -9 -323 36 -467 136 -426 47 20 54 52 46 205 -8
147 2 217 37 261 48 61 61 18 68 -210 4 -163 8 -196 25 -230 16 -33 26 -41 52
-43 28 -3 34 1 51 35 24 47 39 122 47 233 8 105 23 186 41 223 15 28 47 36 60
15 4 -6 6 -96 5 -199 -2 -202 7 -262 40 -280 28 -15 63 -4 82 24 39 61 51 136
52 327 0 247 -26 349 -98 374 -37 13 -100 -17 -146 -72 l-37 -43 -19 41 c-36
80 -95 107 -160 73z"/>
<path d="M2462 2508 c-38 -42 -45 -101 -40 -365 4 -227 6 -252 25 -295 37 -81
107 -77 145 10 18 39 22 75 27 207 6 152 7 162 34 208 18 30 35 47 47 47 34 0
43 -35 36 -144 -19 -309 -19 -339 3 -373 50 -80 127 -4 172 170 48 188 46 384
-6 472 -51 88 -174 99 -266 25 -43 -34 -49 -36 -49 -16 0 8 -12 28 -26 45 -31
38 -71 41 -102 9z"/>
<path d="M1945 2507 c-99 -33 -154 -82 -162 -146 -4 -31 -1 -46 12 -61 26 -29
63 -25 141 16 52 27 76 34 99 30 38 -8 65 -40 65 -77 0 -25 -5 -29 -42 -39
-130 -32 -246 -100 -280 -163 -39 -74 -22 -163 43 -221 22 -20 52 -42 67 -47
39 -15 117 -2 176 29 28 15 54 28 59 30 4 2 7 -6 7 -18 0 -29 53 -80 82 -80
76 0 103 83 95 290 -10 257 -59 385 -171 442 -49 25 -138 32 -191 15z m163
-454 c-3 -46 -4 -48 -49 -67 -87 -36 -132 5 -70 63 27 25 75 47 109 50 9 1 12
-12 10 -46z"/>
<path d="M1207 2480 c-59 -69 -91 -202 -85 -354 8 -201 71 -299 211 -328 73
-15 155 0 212 40 92 64 140 235 117 415 -21 169 -61 241 -129 235 -26 -2 -42
-11 -57 -31 -22 -30 -22 -29 -11 -247 7 -142 7 -146 -17 -180 -18 -27 -32 -36
-59 -38 -76 -6 -94 75 -65 288 17 123 12 176 -20 211 -26 29 -68 24 -97 -11z"/>
<path d="M4228 2478 c-40 -62 -42 -84 -46 -451 -3 -367 3 -467 35 -534 28 -60
97 -53 128 14 16 33 31 173 34 321 l1 23 30 -22 c19 -14 49 -24 82 -26 70 -6
129 25 175 91 53 77 68 142 67 286 0 150 -21 217 -83 273 -67 60 -147 61 -244
3 l-55 -33 -24 36 c-29 46 -77 55 -100 19z m301 -195 c64 -52 32 -263 -42
-271 -41 -5 -94 25 -106 60 -6 17 -11 57 -11 88 0 65 22 103 74 126 42 18 60
17 85 -3z"/>
<path d="M1714 1420 c-11 -4 -33 -22 -47 -40 -28 -33 -26 -51 7 -80 20 -16 20
-44 1 -60 -19 -16 -19 -29 0 -37 21 -8 55 25 55 53 0 12 -12 36 -26 53 -31 37
-26 55 21 78 48 23 38 53 -11 33z"/>
<path d="M2765 1418 c-64 -35 -82 -80 -45 -113 24 -21 26 -48 5 -65 -19 -16
-19 -29 0 -37 22 -8 55 26 55 57 0 15 -10 36 -25 50 -34 32 -32 46 15 72 37
22 46 38 24 45 -5 1 -18 -3 -29 -9z"/>
<path d="M1965 1388 c-34 -147 -34 -149 -19 -155 8 -3 23 2 34 12 19 17 20 17
39 -6 15 -18 22 -21 31 -12 16 15 -17 73 -42 73 -15 0 -17 8 -15 51 2 54 -18
81 -28 37z"/>
<path d="M2287 1393 c-4 -3 -7 -21 -7 -39 0 -28 -4 -33 -27 -36 -40 -4 -36
-32 5 -36 27 -3 32 -7 32 -28 0 -30 23 -28 28 2 2 10 13 26 25 35 l20 17 -21
11 c-13 7 -22 21 -22 35 0 25 -22 51 -33 39z"/>
<path d="M2504 1382 c-6 -4 -15 -37 -18 -74 l-8 -68 28 0 c15 0 35 -7 45 -16
26 -24 44 -8 24 22 -8 13 -11 24 -5 24 5 0 10 7 10 15 0 8 -9 15 -20 15 -17 0
-20 7 -20 45 0 44 -10 55 -36 37z"/>
<path d="M3288 1322 c-32 -19 -38 -61 -13 -82 18 -15 19 -14 32 24 9 29 20 39
56 50 10 3 15 10 12 16 -10 15 -57 11 -87 -8z"/>
<path d="M1812 1305 c-17 -14 -35 -25 -42 -25 -6 0 -10 -8 -8 -17 3 -16 25
-25 99 -40 31 -6 50 15 26 29 -14 7 -14 12 -5 28 9 14 9 22 -1 34 -19 22 -35
20 -69 -9z"/>
<path d="M2862 1305 c-17 -14 -35 -25 -42 -25 -6 0 -10 -8 -8 -17 3 -16 25
-25 99 -40 31 -6 50 15 26 29 -14 7 -14 12 -5 28 9 14 9 22 -1 34 -19 22 -35
20 -69 -9z"/>
<path d="M2133 1284 c-34 -14 -58 -47 -48 -64 9 -15 31 -12 46 6 8 9 21 13 35
10 29 -8 37 6 23 38 -14 29 -13 29 -56 10z"/>
<path d="M3010 1291 c-16 -4 -25 -14 -25 -26 0 -15 7 -20 25 -20 21 0 26 -5
28 -33 2 -19 -4 -44 -12 -57 -21 -32 -1 -44 27 -17 16 16 21 33 20 70 -1 88
-9 98 -63 83z"/>
<path d="M3148 1279 c-28 -14 -38 -26 -38 -44 0 -29 16 -32 48 -9 12 8 26 13
31 10 5 -4 16 -4 24 0 13 5 13 9 0 35 -17 34 -17 34 -65 8z"/>
</g>
</svg>
