<?xml version="1.0" standalone="no"?>
<!DOCTYPE svg PUBLIC "-//W3C//DTD SVG 20010904//EN"
 "http://www.w3.org/TR/2001/REC-SVG-20010904/DTD/svg10.dtd">
<svg version="1.0" xmlns="http://www.w3.org/2000/svg"
 width="850.000000pt" height="850.000000pt" viewBox="0 0 850.000000 850.000000"
 preserveAspectRatio="xMidYMid meet">

<g transform="translate(0.000000,850.000000) scale(0.100000,-0.100000)"
fill="#000000" stroke="none">
<path d="M0 4250 l0 -4250 4250 0 4250 0 0 4250 0 4250 -4250 0 -4250 0 0
-4250z m5303 1613 c-7 -2 -21 -2 -30 0 -10 3 -4 5 12 5 17 0 24 -2 18 -5z
m-13 -39 c0 -15 -201 -475 -305 -699 -20 -44 -92 -201 -160 -350 -67 -148
-171 -376 -229 -505 -59 -129 -114 -240 -123 -247 -8 -6 -12 -16 -9 -21 11
-19 -5 -40 -26 -34 -18 4 -19 3 -8 -18 8 -14 8 -26 2 -32 -7 -7 -36 18 -88 71
-186 195 -443 296 -743 290 l-56 -1 40 -13 40 -13 -50 -3 c-49 -3 -107 -1
-111 4 -1 1 31 68 71 149 40 80 76 144 78 141 9 -9 156 66 180 92 21 23 26 25
50 14 18 -8 27 -20 27 -36 0 -35 35 -97 66 -118 29 -19 188 -75 214 -75 23 0
103 178 103 229 0 21 -11 59 -23 84 -22 44 -22 47 -6 81 13 27 23 36 42 36 25
0 170 56 178 68 7 12 -45 126 -69 152 -30 33 -16 66 34 80 76 21 110 55 163
167 27 58 48 107 46 109 -2 2 -45 19 -96 39 -100 39 -148 43 -217 19 -36 -12
-53 -13 -78 -5 -29 10 -35 19 -58 93 l-26 81 30 69 31 70 35 -6 c20 -4 161 -9
313 -12 292 -7 415 1 578 36 85 18 160 25 160 14z m40 -115 c0 -5 21 -51 46
-102 25 -51 69 -150 99 -220 53 -128 98 -212 142 -264 l23 -28 -15 37 c-25 63
-16 56 21 -16 19 -37 33 -70 30 -73 -6 -7 43 -105 88 -176 18 -28 65 -115 104
-192 l72 -140 -55 60 c-31 33 -64 80 -75 104 -11 25 -33 56 -49 70 -16 14 -47
64 -70 110 -43 87 -82 147 -113 169 -10 7 -18 22 -18 32 0 25 -38 113 -53 122
-7 4 -12 11 -12 15 -1 4 -6 18 -13 30 -6 12 -9 29 -5 39 4 11 2 15 -4 11 -6
-4 -8 3 -6 17 6 30 -14 69 -30 59 -7 -4 -5 2 3 12 12 15 12 17 1 10 -11 -6
-13 -4 -9 7 4 8 0 28 -6 44 -7 16 -20 46 -30 67 -9 21 -21 35 -26 32 -6 -3
-10 1 -10 9 0 9 5 16 10 16 7 0 7 7 -1 21 -9 18 -13 19 -20 8 -6 -9 -7 -4 -3
15 5 21 4 27 -5 22 -6 -4 -12 -4 -12 1 -1 4 -3 17 -5 28 -1 11 -6 31 -10 44
-5 17 -4 22 4 17 7 -4 12 -12 12 -17z m-41 -275 c1 -138 -7 -227 -19 -219 -7
5 -15 -71 -29 -305 -9 -132 -15 -170 -31 -170 -4 0 -12 39 -18 88 -31 239 -31
238 -27 122 2 -58 10 -151 18 -208 12 -80 13 -133 6 -249 -5 -81 -11 -148 -13
-150 -2 -2 -9 34 -16 79 -13 88 -40 201 -47 194 -2 -2 5 -57 17 -122 11 -66
28 -159 37 -209 9 -49 29 -130 44 -180 33 -101 36 -137 13 -159 -17 -18 -28
-21 -19 -6 11 18 -2 11 -45 -25 -52 -43 -93 -55 -197 -55 -49 0 -83 -4 -83
-10 0 -5 10 -10 23 -11 12 0 -12 -11 -53 -23 -41 -13 -99 -31 -128 -40 -29
-10 -61 -16 -71 -14 -10 2 -25 -3 -34 -10 -9 -8 -37 -14 -63 -15 l-48 -2 -1
65 c0 49 5 72 19 95 17 25 17 28 3 16 -42 -33 -23 3 35 69 106 120 116 140 24
48 -47 -49 -89 -88 -92 -88 -9 0 43 88 86 146 44 59 160 284 146 284 -1 0 -36
-54 -76 -120 -41 -66 -75 -118 -77 -116 -3 3 149 337 337 741 56 121 125 270
153 330 28 61 61 126 73 145 23 36 133 288 135 312 5 42 17 -117 18 -228z m79
46 c28 -74 64 -170 81 -214 20 -49 29 -86 25 -99 -6 -20 -7 -19 -21 7 -18 34
-27 29 -13 -8 15 -39 12 -55 -5 -26 -35 61 -96 234 -109 311 -21 127 -28 196
-18 179 6 -8 32 -76 60 -150z m32 -5 c0 -5 -5 -3 -10 5 -5 8 -10 20 -10 25 0
6 5 3 10 -5 5 -8 10 -19 10 -25z m-1321 -73 c-6 -17 -18 -33 -27 -37 -14 -5
-14 -4 1 13 9 10 17 25 17 34 0 15 11 31 17 25 2 -2 -2 -18 -8 -35z m255 -24
c-5 -7 -3 -8 5 -3 21 12 61 -34 61 -70 0 -62 -87 -113 -146 -86 -32 14 -41 14
-47 -1 -3 -7 -21 -48 -40 -90 l-36 -76 55 5 c44 5 55 3 54 -8 -1 -8 -2 -25 -1
-38 1 -19 4 -22 13 -13 8 8 8 15 -2 27 -8 10 -9 15 -1 15 19 0 24 -49 7 -75
-30 -46 -110 -44 -131 3 -5 12 -12 22 -15 22 -11 0 -82 -169 -75 -179 3 -6 14
-11 24 -11 32 0 71 -46 71 -82 0 -64 -57 -106 -125 -94 -28 6 -39 15 -53 42
-15 33 -15 39 -1 79 l16 44 -84 31 c-111 40 -112 40 -110 -14 1 -30 5 -40 10
-30 5 9 6 27 3 42 -5 20 -4 23 4 12 5 -8 10 -25 10 -36 0 -29 -33 -69 -51 -62
-22 8 -34 7 -31 -4 1 -5 -3 -6 -9 -3 -13 9 -2 22 33 39 22 11 24 21 16 71 -2
14 7 24 32 36 19 9 33 21 31 25 -2 5 20 19 49 32 30 13 48 17 44 10 -4 -7 4
-3 17 9 28 25 77 46 90 37 5 -3 9 0 9 6 0 7 7 9 17 6 10 -4 15 -4 11 -1 -3 4
2 15 12 25 23 23 20 36 -39 168 -48 108 -53 131 -11 52 36 -68 38 -61 5 14
-14 31 -25 65 -25 75 0 16 4 16 63 -4 34 -12 69 -25 77 -28 39 -16 53 -11 71
23 20 36 45 60 63 60 6 -1 -1 -11 -15 -23 -28 -23 -54 -65 -46 -73 3 -3 11 8
18 24 7 17 26 38 41 47 15 9 28 20 28 26 0 5 9 9 21 9 13 0 18 -4 13 -12z
m996 -728 c-1 -406 -5 -679 -11 -685 -6 -6 -12 -6 -18 0 -13 14 -22 1165 -10
1188 6 10 13 66 16 125 5 85 8 101 15 77 5 -17 9 -333 8 -705z m128 675 c-3
-3 -9 2 -12 12 -6 14 -5 15 5 6 7 -7 10 -15 7 -18z m-2495 -20 c-3 -9 -8 -14
-10 -11 -3 3 -2 9 2 15 9 16 15 13 8 -4z m-33 -55 c-6 -11 -13 -20 -16 -20 -2
0 0 9 6 20 6 11 13 20 16 20 2 0 0 -9 -6 -20z m-49 -77 c-5 -10 -17 -27 -26
-38 -16 -19 -16 -19 -4 5 13 27 29 50 36 50 2 0 -1 -8 -6 -17z m2619 -42 c-23
-43 -90 -66 -90 -30 0 6 7 8 16 5 22 -8 61 17 70 46 4 13 9 18 11 11 2 -7 -1
-21 -7 -32z m26 -48 c-10 -32 -45 -63 -71 -63 -33 0 -33 28 0 40 13 5 34 19
45 30 24 24 35 21 26 -7z m-2754 -62 c8 12 9 12 6 0 -6 -22 -28 -25 -27 -4 0
12 2 14 6 4 5 -11 7 -11 15 0z m2828 -53 c-19 38 -4 24 26 -25 36 -57 106
-231 101 -247 -4 -13 -41 56 -51 96 -3 15 -18 40 -32 55 l-25 28 22 -45 c17
-35 18 -42 5 -31 -25 21 -20 7 24 -60 22 -34 40 -66 40 -71 0 -22 -23 -2 -62
53 -55 77 -63 59 -8 -21 22 -33 36 -60 30 -60 -6 0 -31 19 -55 41 -25 23 -45
37 -45 32 0 -6 9 -18 20 -28 11 -10 20 -23 20 -28 0 -25 -52 42 -85 108 -33
67 -35 79 -33 149 2 54 6 72 13 62 33 -48 36 -50 32 -36 -2 8 -7 26 -11 40
l-7 25 20 -25 c22 -27 28 -13 10 23 -5 12 6 4 26 -18 21 -23 32 -30 25 -17z
m-168 -29 c-6 -55 20 -49 29 7 l6 39 2 -47 c1 -37 -3 -50 -17 -57 -34 -18 -51
19 -36 77 10 37 20 25 16 -19z m-2782 -109 c0 -5 -4 -10 -10 -10 -5 0 -10 5
-10 10 0 6 5 10 10 10 6 0 10 -4 10 -10z m-95 -10 c3 -5 2 -10 -4 -10 -5 0
-13 5 -16 10 -3 6 -2 10 4 10 5 0 13 -4 16 -10z m5 -42 c11 -12 20 -26 20 -32
0 -5 -7 -1 -15 10 -15 18 -16 17 -10 -16 l6 -35 -16 28 c-21 37 -31 28 -16
-14 17 -49 12 -59 -8 -14 l-18 40 5 -48 5 -49 -27 27 c-32 31 -28 53 14 88 16
14 26 28 23 31 -4 3 -1 6 5 6 6 0 20 -10 32 -22z m3224 -44 c3 -8 2 -12 -4 -9
-6 3 -10 10 -10 16 0 14 7 11 14 -7z m-3331 -9 c-3 -9 -8 -14 -10 -11 -3 3 -2
9 2 15 9 16 15 13 8 -4z m3292 -74 c-21 -42 -105 -83 -105 -51 0 6 7 10 15 10
38 0 74 31 87 73 10 31 14 36 16 20 2 -12 -4 -35 -13 -52z m253 38 c-3 -8 -7
-3 -11 10 -4 17 -3 21 5 13 5 -5 8 -16 6 -23z m127 -39 c3 -5 1 -10 -4 -10 -6
0 -11 5 -11 10 0 6 2 10 4 10 3 0 8 -4 11 -10z m-370 -40 c-8 -25 -44 -60 -62
-60 -23 0 -14 18 17 37 17 9 33 26 36 36 3 10 8 16 11 14 3 -3 2 -15 -2 -27z
m135 -129 c33 -56 54 -104 62 -145 6 -34 18 -69 26 -78 10 -11 12 -27 7 -45
l-7 -28 -19 37 c-20 40 -49 66 -34 32 4 -10 16 -41 27 -69 11 -27 24 -54 29
-59 5 -6 9 -17 9 -25 0 -10 -3 -12 -8 -6 -4 6 -16 10 -27 10 -16 0 -25 14 -42
69 -13 38 -29 74 -37 80 -9 6 -23 29 -32 51 -9 22 -19 34 -21 27 -3 -6 11 -41
31 -76 43 -77 45 -88 10 -55 l-27 24 13 -25 c7 -14 24 -38 39 -55 16 -19 11
-16 -16 9 -23 21 -55 66 -72 100 -35 72 -50 123 -32 112 17 -11 13 4 -19 68
-17 32 -30 68 -30 79 0 32 15 9 35 -53 24 -72 31 -50 10 30 -9 34 -14 64 -11
67 2 3 18 -21 35 -53 16 -33 37 -68 46 -79 20 -24 17 -17 -17 55 -14 30 -29
66 -33 80 -6 24 -6 24 19 -5 14 -16 25 -25 26 -18 0 6 -11 25 -25 41 -35 41
-31 53 5 17 16 -17 52 -68 80 -114z m159 124 c4 2 8 -15 9 -37 1 -23 8 -45 15
-50 8 -5 7 -8 -5 -8 -12 0 -18 8 -18 23 0 35 -11 67 -21 61 -5 -3 -6 3 -2 12
4 11 8 13 11 6 2 -7 7 -10 11 -7z m103 -12 c34 -32 35 -44 7 -69 l-21 -19 3
39 c4 44 -12 58 -28 24 -9 -21 -10 -19 -7 12 1 19 3 36 3 38 2 8 18 -1 43 -25z
m-3797 -53 c10 -11 16 -20 13 -20 -3 0 -13 9 -23 20 -10 11 -16 20 -13 20 3 0
13 -9 23 -20z m3772 -12 c-3 -8 -6 -5 -6 6 -1 11 2 17 5 13 3 -3 4 -12 1 -19z
m-3783 -147 c-38 -45 -73 -81 -77 -81 -13 0 1 19 71 98 36 40 67 70 70 68 2
-3 -27 -41 -64 -85z m101 59 c3 -5 -4 -19 -16 -31 -16 -16 -21 -18 -16 -6 4
10 2 17 -5 17 -7 0 -6 5 2 15 14 17 26 19 35 5z m3725 -30 c0 -5 -4 -10 -10
-10 -5 0 -10 5 -10 10 0 6 5 10 10 10 6 0 10 -4 10 -10z m-3632 -25 c-3 -3 -9
2 -12 12 -6 14 -5 15 5 6 7 -7 10 -15 7 -18z m3692 9 c0 -8 -5 -12 -10 -9 -6
4 -8 11 -5 16 9 14 15 11 15 -7z m-3718 -18 c7 4 8 2 4 -5 -9 -13 -26 -5 -25
12 0 9 2 8 6 -1 2 -6 10 -9 15 -6z m-32 -16 c6 -11 7 -20 2 -20 -10 0 -32 21
-32 32 0 16 19 8 30 -12z m3690 11 c0 -6 -4 -13 -10 -16 -5 -3 -10 1 -10 9 0
9 5 16 10 16 6 0 10 -4 10 -9z m-3900 -21 c0 -5 -5 -10 -11 -10 -5 0 -7 5 -4
10 3 6 8 10 11 10 2 0 4 -4 4 -10z m-38 -30 c-3 -24 -7 -28 -20 -21 -10 6 -25
3 -41 -7 l-26 -16 25 28 c14 16 34 32 45 36 11 5 20 9 21 9 0 1 -1 -12 -4 -29z
m252 -9 c-3 -3 -15 6 -27 18 l-22 24 27 -19 c14 -10 24 -21 22 -23z m3736 35
c0 -3 -4 -8 -10 -11 -5 -3 -10 -1 -10 4 0 6 5 11 10 11 6 0 10 -2 10 -4z
m-3857 -23 c-7 -2 -21 -2 -30 0 -10 3 -4 5 12 5 17 0 24 -2 18 -5z m2885 -1
c9 -6 12 -41 11 -131 -2 -128 -10 -154 -16 -48 -6 112 -15 172 -27 179 -7 5
-6 8 4 8 8 0 21 -4 28 -8z m952 4 c0 -3 -4 -8 -10 -11 -5 -3 -10 -1 -10 4 0 6
5 11 10 11 6 0 10 -2 10 -4z m27 -26 c0 -25 -3 -28 -16 -18 -9 7 -18 14 -20
15 -5 4 20 33 29 33 3 0 7 -13 7 -30z m-104 4 c20 -7 22 -21 5 -26 -7 -3 -9
-11 -4 -24 7 -18 9 -17 18 6 l9 25 20 -24 c18 -23 19 -24 0 -50 -10 -14 -21
-35 -24 -46 -3 -15 -5 -13 -6 8 0 16 -6 38 -12 49 -9 17 -13 18 -20 7 -7 -11
-9 -11 -9 2 0 9 -7 22 -15 29 -8 7 -15 18 -15 24 0 6 9 0 20 -14 11 -14 20
-20 19 -15 0 6 -6 19 -14 29 -18 24 -19 40 -2 32 6 -3 20 -9 30 -12z m67 -19
c18 -19 37 -32 41 -29 4 2 23 -4 42 -15 19 -11 37 -17 40 -14 3 2 4 -3 2 -14
-2 -10 -4 -22 -4 -26 -1 -5 -6 -5 -11 -2 -6 4 -8 11 -5 16 4 5 0 9 -8 9 -8 0
-21 10 -30 23 -8 12 -18 19 -22 15 -3 -3 10 -25 30 -47 60 -66 36 -47 -50 39
-44 44 -75 80 -69 80 5 0 25 -16 44 -35z m-3830 -5 c0 -19 -1 -19 -20 -3 -14
12 -16 19 -8 24 17 10 28 1 28 -21z m84 5 c-4 -8 -11 -15 -16 -15 -6 0 -5 6 2
15 7 8 14 15 16 15 2 0 1 -7 -2 -15z m3613 -23 c-2 -15 2 -39 9 -54 8 -15 14
-35 14 -44 0 -15 -2 -15 -22 -2 -12 8 -24 21 -26 29 -3 9 3 7 17 -5 19 -17 21
-18 15 -3 -3 10 -15 22 -25 28 -23 12 -25 29 -3 29 13 0 14 3 5 14 -13 15 -4
49 10 40 5 -3 8 -18 6 -32z m-3802 18 c3 -5 1 -10 -4 -10 -6 0 -11 5 -11 10 0
6 2 10 4 10 3 0 8 -4 11 -10z m2962 -57 c-2 -16 -4 -5 -4 22 0 28 2 40 4 28 2
-13 2 -35 0 -50z m-2757 37 c0 -5 -5 -10 -11 -10 -5 0 -7 5 -4 10 3 6 8 10 11
10 2 0 4 -4 4 -10z m370 -35 c52 -13 142 -40 200 -60 104 -36 142 -54 85 -41
-56 14 -11 -10 55 -29 73 -21 104 -34 97 -42 -3 -2 -14 0 -24 6 -11 5 -37 12
-59 15 -35 4 -109 23 -231 58 -30 8 -51 9 -70 2 -22 -8 -52 -3 -143 23 -63 18
-135 37 -160 44 l-44 11 33 27 c32 26 36 27 100 19 36 -5 109 -20 161 -33z
m2556 9 c12 -10 11 -12 -4 -16 -16 -4 -19 0 -19 26 -1 17 1 24 4 16 3 -8 12
-20 19 -26z m-3146 6 c0 -25 -34 -60 -59 -60 -10 0 -25 7 -32 17 -13 15 -12
15 9 4 31 -16 77 10 69 40 -3 10 -1 19 4 19 5 0 9 -9 9 -20z m3309 -63 c118
-62 122 -69 49 -81 -21 -3 -57 -11 -80 -17 -24 -6 -55 -13 -70 -16 l-28 -5 -2
63 c-3 96 -3 103 -12 117 -10 17 10 8 143 -61z m-2079 47 c0 -10 -172 -284
-182 -290 -22 -14 -12 8 53 116 38 63 78 129 89 147 17 29 40 44 40 27z
m-1145 -14 c-3 -5 -11 -10 -16 -10 -6 0 -7 5 -4 10 3 6 11 10 16 10 6 0 7 -4
4 -10z m35 -18 c0 -15 -2 -15 -10 -2 -13 20 -13 33 0 25 6 -3 10 -14 10 -23z
m110 4 c-6 -6 -10 -19 -10 -30 0 -10 -3 -16 -6 -13 -4 3 -16 1 -27 -5 -20 -10
-19 -10 1 19 12 17 19 33 16 36 -4 3 3 5 15 4 14 -1 17 -5 11 -11z m1054 2
c-5 -8 2 -9 25 -5 24 5 39 1 61 -15 28 -20 31 -20 48 -5 18 16 45 15 87 -3 11
-5 31 -11 45 -13 24 -4 24 -4 -2 -6 -20 -1 -28 -6 -28 -20 0 -12 11 -24 28
-30 26 -10 26 -11 -8 -5 -28 4 -31 3 -18 -6 10 -6 38 -12 62 -13 24 -1 42 -5
40 -8 -2 -3 18 -11 44 -17 68 -15 220 -72 235 -87 8 -7 31 -22 53 -33 22 -11
47 -29 54 -39 14 -17 13 -17 -5 -3 -85 66 -265 112 -265 69 0 -7 6 -6 17 2 15
12 16 12 11 -2 -8 -21 30 -40 63 -32 20 4 21 3 9 -7 -12 -9 -11 -10 6 -5 12 3
28 0 35 -7 8 -7 38 -24 67 -37 92 -43 100 -80 9 -43 -29 12 -59 22 -68 22 -9
0 -90 23 -180 51 -90 28 -181 56 -202 62 -21 7 -37 17 -36 22 4 14 85 33 100
24 8 -5 6 -9 -7 -12 -12 -3 -6 -5 14 -6 17 0 32 1 32 4 0 2 -18 14 -41 25 -39
21 -41 21 -54 3 -13 -17 -14 -17 -20 0 -4 9 -11 17 -17 17 -5 0 -7 -4 -3 -9
10 -17 -12 -22 -42 -10 -15 6 -41 13 -58 15 -75 7 -98 18 -101 49 -3 24 -2 26
5 10 5 -11 6 -24 3 -29 -2 -5 1 -6 9 -4 8 3 13 11 12 17 -2 6 2 11 7 11 22 0
8 22 -22 35 -33 14 -32 14 31 12 85 -3 91 16 11 34 -35 8 -60 18 -60 26 0 7 5
13 11 13 5 0 7 -5 3 -12z m2711 3 c3 -5 1 -12 -5 -16 -5 -3 -10 1 -10 9 0 18
6 21 15 7z m-2605 -11 c13 -8 13 -10 -2 -10 -9 0 -20 5 -23 10 -8 13 5 13 25
0z m-1396 -15 c-4 -8 -1 -15 7 -15 7 0 10 -2 7 -5 -3 -3 -13 -3 -22 1 -13 5
-14 9 -5 20 15 18 20 18 13 -1z m289 8 c-7 -2 -19 -2 -25 0 -7 3 -2 5 12 5 14
0 19 -2 13 -5z m2844 -35 c-3 -7 -5 -2 -5 12 0 14 2 19 5 13 2 -7 2 -19 0 -25z
m913 7 c11 -13 11 -18 0 -28 -10 -10 -12 -9 -7 5 4 11 0 21 -11 27 -9 6 -12
11 -6 11 6 0 17 -7 24 -15z m-3984 -22 c-10 -10 -19 5 -10 18 6 11 8 11 12 0
2 -7 1 -15 -2 -18z m221 21 c-3 -3 -12 -4 -19 -1 -8 3 -5 6 6 6 11 1 17 -2 13
-5z m1387 -20 c20 -3 36 -10 36 -14 0 -5 10 -6 23 -3 18 4 19 3 7 -7 -12 -10
-11 -11 7 -7 13 3 26 0 29 -5 5 -7 -7 -8 -32 -4 -22 3 -47 6 -57 7 -10 0 -15
5 -11 11 5 7 -2 9 -19 6 -15 -3 -24 -2 -21 3 2 4 -4 13 -13 19 -15 10 -16 11
-1 6 9 -3 33 -8 52 -12z m2143 4 c4 -7 8 -15 8 -18 0 -3 11 -20 24 -37 18 -25
28 -30 37 -22 7 6 19 7 26 3 8 -5 2 -10 -17 -16 -21 -5 -33 -4 -40 6 -6 7 -24
16 -40 20 -23 5 -30 12 -31 31 -1 14 2 25 8 25 5 0 6 5 3 10 -3 6 -2 10 4 10
5 0 13 -6 18 -12z m-2217 -8 c11 -7 5 -8 -20 -4 -43 8 -51 14 -19 14 13 0 31
-5 39 -10z m2354 -7 c3 -7 -1 -10 -9 -6 -9 3 -18 -4 -24 -18 -9 -23 -10 -23
-10 6 -1 24 3 31 19 31 11 0 22 -6 24 -13z m-3754 -2 c0 -5 -9 -7 -20 -4 -11
3 -20 7 -20 9 0 2 9 4 20 4 11 0 20 -4 20 -9z m3936 -2 c3 -6 -3 -21 -15 -32
-11 -12 -21 -16 -21 -10 0 6 7 13 15 17 20 7 19 24 -2 29 -16 4 -16 5 -1 6 9
0 20 -4 24 -10z m-648 -34 c-2 -1 -21 -5 -43 -9 -31 -4 -35 -4 -17 4 13 5 20
14 17 20 -4 6 4 5 19 -2 15 -6 25 -12 24 -13z m498 -10 c0 -25 -3 -31 -9 -20
-7 13 -2 55 7 55 1 0 2 -16 2 -35z m66 5 c-4 -29 -16 -39 -25 -22 -6 10 11 52
21 52 5 0 7 -13 4 -30z m-368 5 c11 -8 30 -15 42 -15 16 0 21 -5 19 -17 -2
-10 -4 -21 -4 -25 -1 -5 -11 -8 -23 -8 -22 -1 -22 -1 -4 -15 17 -13 18 -18 7
-41 l-11 -26 -98 6 c-60 3 -88 2 -72 -3 14 -5 41 -10 60 -11 l35 -2 -30 -8
c-16 -4 -70 -9 -120 -10 -59 -1 -82 -5 -65 -10 43 -13 0 -22 -75 -16 -45 3
-64 1 -58 -5 6 -6 20 -11 32 -12 11 -1 21 -4 21 -8 0 -13 -57 -21 -94 -13 -21
3 -36 2 -36 -3 0 -17 -49 -33 -80 -27 -16 4 -30 10 -30 15 0 5 -4 9 -10 9 -5
0 -10 -6 -10 -14 0 -8 -5 -18 -12 -22 -6 -4 -8 -3 -4 4 3 6 2 13 -4 17 -5 3
-10 2 -10 -3 0 -14 -47 -62 -61 -62 -8 0 -6 7 4 18 29 31 19 37 -12 8 -18 -17
-34 -25 -42 -21 -8 5 -10 4 -5 -3 4 -7 3 -12 -3 -12 -5 0 -18 -3 -28 -7 -13
-4 -10 3 11 25 42 45 23 53 -22 10 -37 -36 -110 -78 -134 -78 -7 0 10 20 37
45 49 45 49 45 10 20 -100 -63 -142 -85 -162 -85 -12 0 -25 -5 -28 -10 -7 -12
-49 -34 -84 -45 -16 -5 -21 -4 -17 4 4 6 3 11 -3 11 -5 0 -13 -5 -17 -11 -6
-10 -106 -59 -121 -59 -3 0 1 7 8 17 8 9 10 14 4 12 -5 -3 -32 -15 -58 -27
-27 -12 -50 -22 -52 -22 -7 0 1 96 9 109 5 8 4 16 -2 20 -20 12 2 28 53 39
189 40 236 52 285 71 30 12 98 30 151 40 63 13 125 34 182 61 88 43 132 47
121 12 -3 -9 9 0 26 21 22 25 40 37 58 37 20 0 23 3 13 9 -9 6 0 11 30 16 39
6 106 21 362 81 37 9 70 20 73 25 8 13 26 11 48 -6z m-2974 -5 c0 -5 -9 -10
-19 -10 -11 0 -23 5 -26 10 -4 6 5 10 19 10 14 0 26 -4 26 -10z m1138 -11 c2
-5 11 -9 20 -9 15 0 15 -2 2 -10 -9 -6 -18 -6 -24 0 -6 6 -19 10 -30 10 -16 0
-18 2 -7 9 12 8 12 10 0 14 -8 2 -3 2 11 0 14 -3 27 -9 28 -14z m1517 -9 c-3
-5 -16 -10 -28 -9 -21 0 -21 1 -2 9 28 12 37 12 30 0z m-1406 -57 c2 -2 -1 -3
-7 -3 -6 0 -24 12 -39 26 l-28 26 35 -23 c19 -12 37 -24 39 -26z m1221 24 c21
-4 20 -4 -7 -6 -25 -1 -33 3 -33 17 0 11 3 13 8 6 4 -7 18 -14 32 -17z m95 13
c-16 -4 -39 -8 -50 -8 -16 0 -15 2 5 8 14 4 36 8 50 8 22 0 22 -1 -5 -8z
m-2074 -77 c13 -16 12 -17 -3 -4 -10 7 -18 15 -18 17 0 8 8 3 21 -13z m484
-70 c181 -58 233 -81 241 -105 3 -11 3 -22 0 -25 -11 -11 -65 -4 -89 12 -22
14 -27 14 -39 1 -11 -12 -17 -10 -47 17 -19 18 -31 26 -27 20 12 -22 -21 -14
-52 12 -17 14 -33 25 -37 25 -4 0 -26 14 -50 31 -29 21 -50 29 -62 25 -9 -4
-14 -4 -10 0 3 4 -3 16 -16 27 l-22 19 35 -7 c19 -4 98 -28 175 -52z m140 47
c8 -13 -5 -13 -25 0 -13 8 -13 10 2 10 9 0 20 -4 23 -10z m-785 -45 c0 -8 -4
-15 -9 -15 -5 0 -11 7 -15 15 -3 9 0 15 9 15 8 0 15 -7 15 -15z m1065 -35 c3
-6 3 -15 -1 -22 -5 -7 -11 -3 -17 13 -5 14 -11 19 -14 12 -3 -10 -7 -10 -18 0
-9 8 -9 14 -2 19 12 7 42 -6 52 -22z m-1079 -15 c7 -27 0 -55 -13 -55 -4 0 -9
18 -10 40 -1 44 13 54 23 15z m1096 -47 c-62 -115 -167 -257 -196 -267 -13 -5
5 20 50 69 35 37 139 199 149 231 4 10 11 19 16 19 6 0 -3 -24 -19 -52z m68
27 c5 3 11 1 15 -5 7 -11 -5 -13 -29 -4 -9 3 -13 11 -9 17 5 8 8 7 11 -1 2 -7
8 -10 12 -7z m-120 -16 c0 -5 -7 -9 -15 -9 -15 0 -20 12 -9 23 8 8 24 -1 24
-14z m104 -25 c9 -3 16 -10 16 -14 0 -10 -38 -1 -46 11 -6 10 7 12 30 3z m46
-61 c8 -4 19 -5 24 -4 5 1 6 -20 3 -47 -3 -27 -1 -54 4 -59 6 -6 2 -18 -11
-34 -16 -17 -20 -19 -16 -6 6 17 -10 25 -16 7 -2 -6 -17 -5 -41 2 -27 8 -34
14 -25 21 9 6 8 7 -5 3 -22 -7 -87 18 -87 34 0 6 7 13 15 16 8 4 15 12 15 20
0 8 5 14 10 14 6 0 9 3 8 8 -1 4 1 17 5 28 7 20 11 21 55 12 26 -5 54 -12 62
-15z m-177 2 c-3 -9 -8 -14 -10 -11 -3 3 -2 9 2 15 9 16 15 13 8 -4z m-161
-277 c-6 -6 -7 0 -4 19 5 21 7 23 10 9 2 -10 0 -22 -6 -28z m-25 -14 c-3 -3
-12 -4 -19 -1 -8 3 -5 6 6 6 11 1 17 -2 13 -5z m40 -1300 c27 -17 45 -79 37
-122 -3 -17 -17 -41 -30 -53 -28 -26 -23 -39 14 -39 18 0 23 -3 16 -10 -15
-15 -155 24 -172 47 -37 50 -34 128 7 166 41 39 79 42 128 11z m-197 6 c0 -5
-19 -10 -43 -10 -24 0 -46 -2 -48 -5 -3 -2 -3 -20 -1 -40 4 -33 6 -35 43 -35
21 0 39 -4 39 -10 0 -5 -18 -10 -40 -10 l-40 0 0 -46 0 -46 44 6 c27 4 47 3
51 -3 8 -14 -32 -23 -81 -19 l-39 3 -3 113 -3 112 61 0 c33 0 60 -4 60 -10z
m300 -62 c0 -91 14 -122 57 -126 47 -5 63 25 63 120 0 45 4 78 10 78 6 0 10
-35 10 -84 0 -103 -19 -136 -78 -136 -43 0 -55 7 -71 37 -14 27 -15 183 -1
183 6 0 10 -31 10 -72z m220 -38 c0 -67 -4 -110 -10 -110 -6 0 -10 43 -10 110
0 67 4 110 10 110 6 0 10 -43 10 -110z m172 93 c44 -39 7 -113 -57 -113 -35 0
-35 0 -35 -45 0 -25 -4 -45 -10 -45 -6 0 -10 43 -10 110 l0 110 47 0 c29 0 53
-6 65 -17z m137 -75 c22 -72 31 -88 36 -73 50 128 65 160 77 163 11 2 17 -10
22 -44 9 -68 7 -184 -3 -184 -12 0 -21 52 -21 123 0 34 -4 57 -8 52 -5 -6 -22
-45 -38 -87 -16 -43 -34 -78 -40 -78 -7 0 -22 38 -35 85 -13 47 -27 85 -30 85
-4 0 -10 -38 -14 -85 -4 -47 -11 -85 -16 -85 -11 0 -11 39 -3 143 6 65 10 77
25 77 14 0 25 -20 48 -92z m-1078 61 c13 -21 11 -65 -5 -78 -12 -10 -12 -16
-1 -39 20 -41 29 -82 17 -82 -6 0 -17 19 -24 43 -13 36 -19 42 -46 45 -30 3
-31 2 -34 -45 -2 -26 -7 -48 -13 -48 -6 0 -11 46 -13 114 l-3 114 57 -5 c33
-3 60 -11 65 -19z m1389 11 c0 -5 -20 -10 -45 -10 -45 0 -45 0 -45 -35 0 -33
2 -35 40 -41 22 -4 40 -11 40 -16 0 -6 -16 -7 -39 -3 l-39 6 -4 -45 -3 -46 47
0 c27 0 48 -4 48 -10 0 -6 -27 -10 -60 -10 l-60 0 0 94 c0 52 3 101 6 110 5
12 20 16 60 16 30 0 54 -4 54 -10z m134 -88 l51 -93 6 86 c6 82 12 105 25 92
12 -11 -8 -217 -21 -217 -6 0 -34 40 -61 90 -27 49 -52 90 -56 90 -4 0 -9 -38
-10 -85 -2 -47 -6 -85 -10 -85 -5 0 -8 2 -8 5 0 3 0 53 0 111 0 93 2 105 17
102 9 -2 39 -45 67 -96z m-1731 68 c59 -47 56 -152 -6 -191 -42 -26 -83 -18
-119 21 -23 25 -28 40 -28 81 0 43 5 55 29 80 36 35 86 39 124 9z m1961 14
c54 -8 62 -24 11 -24 l-35 0 0 -47 c0 -74 -12 -153 -23 -153 -5 0 -8 40 -6
103 l4 102 -32 3 c-18 2 -33 7 -33 13 0 10 47 12 114 3z m-2176 -39 c17 -20
22 -38 22 -81 0 -48 -4 -60 -29 -85 -22 -21 -39 -29 -66 -29 -82 0 -128 111
-79 188 32 49 112 52 152 7z m2427 16 c3 -6 -14 -11 -37 -13 -38 -3 -43 -6
-43 -28 0 -17 12 -32 43 -53 36 -24 42 -33 42 -62 0 -45 -35 -70 -85 -61 -19
4 -37 12 -41 18 -5 7 4 9 29 4 83 -16 106 49 32 90 -31 17 -41 29 -43 52 -2
17 4 36 13 46 18 17 80 22 90 7z m-2658 -35 c31 -36 32 -112 3 -149 -21 -27
-73 -47 -121 -47 -25 0 -27 4 -33 61 -10 97 -7 157 7 163 6 3 36 4 66 2 45 -2
59 -8 78 -30z m2746 -16 l-6 -50 62 0 61 0 0 45 c0 32 4 45 14 45 15 0 15 -21
-3 -170 -8 -73 -26 -71 -22 3 l2 57 -55 0 -55 0 -7 -50 c-7 -56 -24 -68 -24
-17 0 90 13 187 26 187 10 0 12 -12 7 -50z m-2943 30 c0 -5 -14 -10 -31 -10
l-31 0 7 -105 c4 -66 3 -105 -3 -105 -12 0 -22 48 -22 109 0 78 -7 91 -48 91
-50 0 -28 18 28 23 88 7 100 7 100 -3z m3297 -37 c49 -61 16 -176 -54 -189
-49 -9 -81 3 -103 39 -35 56 -20 134 32 172 34 25 97 14 125 -22z m-3483 -10
c3 -21 6 -62 6 -91 0 -43 -5 -58 -25 -77 -39 -40 -96 -30 -122 20 -15 28 -27
175 -15 175 14 0 22 -26 22 -73 0 -52 15 -108 32 -119 25 -15 58 -8 74 16 12
20 14 40 8 105 -4 52 -3 81 3 81 6 0 13 -17 17 -37z m3651 15 c46 -21 46 -95
0 -116 -14 -7 -39 -12 -55 -12 -28 0 -30 -2 -30 -40 0 -25 -5 -40 -12 -40 -10
0 -11 24 -4 110 l9 110 33 0 c18 0 45 -5 59 -12z m-3878 -36 c89 -104 -42
-259 -138 -163 -25 25 -29 37 -29 83 0 60 11 80 55 103 38 20 83 10 112 -23z
m4170 -54 c33 -31 32 -90 -3 -117 -56 -44 -134 -11 -134 58 0 74 83 110 137
59z m-4558 -13 c49 -25 57 -90 16 -130 -63 -63 -160 10 -125 94 19 47 62 61
109 36z m5424 -149 c3 -8 -1 -20 -9 -27 -12 -10 -18 -9 -31 3 -8 9 -12 21 -9
27 10 16 43 14 49 -3z m-6367 -17 c3 -6 -1 -18 -9 -27 -13 -12 -19 -13 -31 -3
-8 7 -12 19 -9 27 6 17 39 19 49 3z m6332 -152 c4 -20 -25 -34 -40 -19 -15 15
-1 44 19 40 10 -2 19 -11 21 -21z m-6303 -21 c0 -22 -14 -29 -34 -17 -19 12
-6 43 16 39 10 -2 18 -12 18 -22z"/>
<path d="M4564 3948 l-19 -23 23 19 c21 18 27 26 19 26 -2 0 -12 -10 -23 -22z"/>
<path d="M5440 5239 c0 -4 7 -22 15 -40 8 -19 14 -27 14 -19 0 14 -28 72 -29
59z"/>
<path d="M4356 5342 c11 -10 20 -25 18 -35 -1 -9 2 -17 7 -17 5 0 9 8 9 18 0
19 -29 52 -46 52 -5 -1 0 -9 12 -18z"/>
<path d="M4268 5333 c-47 -55 -43 -72 22 -83 29 -5 38 -2 54 19 18 21 18 26 5
50 -18 32 -59 39 -81 14z"/>
<path d="M4015 5320 c3 -5 11 -10 16 -10 6 0 7 5 4 10 -3 6 -11 10 -16 10 -6
0 -7 -4 -4 -10z"/>
<path d="M4060 5300 c8 -5 22 -9 30 -9 10 0 8 3 -5 9 -27 12 -43 12 -25 0z"/>
<path d="M4030 5283 c0 -5 16 -46 35 -92 35 -82 45 -120 24 -91 -9 12 -10 11
-4 -5 21 -61 28 -76 31 -72 3 2 0 16 -6 31 -8 22 -4 39 25 102 19 42 35 79 35
82 0 4 -21 15 -47 24 -78 26 -93 30 -93 21z"/>
<path d="M4120 5280 c8 -5 22 -9 30 -9 10 0 8 3 -5 9 -27 12 -43 12 -25 0z"/>
<path d="M4352 5260 c-7 -11 -10 -20 -6 -20 7 0 34 27 34 34 0 13 -16 5 -28
-14z"/>
<path d="M4177 5259 c7 -7 15 -10 18 -7 3 3 -2 9 -12 12 -14 6 -15 5 -6 -5z"/>
<path d="M4210 5250 c0 -5 5 -10 10 -10 6 0 10 5 10 10 0 6 -4 10 -10 10 -5 0
-10 -4 -10 -10z"/>
<path d="M4260 5230 c8 -5 26 -9 40 -9 23 0 23 1 5 9 -11 5 -29 9 -40 9 -17 1
-17 -1 -5 -9z"/>
<path d="M4165 5186 c-16 -17 -48 -106 -41 -113 3 -4 6 -1 6 6 0 7 11 36 25
63 26 51 29 66 10 44z"/>
<path d="M4141 5025 c-2 -47 48 -82 77 -53 32 32 -2 79 -43 60 -18 -8 -25 -8
-29 1 -2 7 -5 3 -5 -8z"/>
<path d="M4132 4979 c6 -16 12 -28 14 -26 5 5 -13 57 -20 57 -3 0 0 -14 6 -31z"/>
<path d="M4027 4969 c-9 -6 -22 -7 -29 -3 -7 5 -8 3 -3 -6 5 -9 1 -11 -16 -6
-13 3 -18 3 -11 0 6 -3 9 -10 6 -15 -3 -6 -12 -5 -22 3 -12 10 -14 10 -8 0 4
-7 0 -14 -11 -18 -10 -3 -30 -12 -45 -20 -30 -16 -62 -20 -38 -4 9 6 10 10 3
10 -16 0 -23 -13 -15 -26 8 -11 117 -54 138 -54 13 0 64 95 64 119 0 6 5 11
10 11 13 0 13 -6 0 -31 -6 -11 -7 -19 -2 -19 16 0 22 44 9 57 -8 8 -17 9 -30
2z"/>
<path d="M4221 4960 c-13 -11 -19 -20 -13 -20 10 0 42 27 42 36 0 7 -4 5 -29
-16z"/>
<path d="M4011 4849 c-12 -29 -20 -54 -17 -56 2 -2 13 19 25 48 12 28 20 53
18 55 -2 3 -14 -19 -26 -47z"/>
<path d="M3880 4836 c36 -12 71 -25 78 -29 6 -5 12 -4 12 2 0 6 -31 19 -69 31
-90 26 -104 24 -21 -4z"/>
<path d="M4028 4783 c6 -2 18 -2 25 0 6 3 1 5 -13 5 -14 0 -19 -2 -12 -5z"/>
<path d="M4070 4776 c0 -5 7 -14 17 -21 22 -16 20 -75 -3 -92 -10 -7 -15 -15
-12 -18 8 -8 36 28 43 56 5 20 0 33 -19 55 -14 16 -26 25 -26 20z"/>
<path d="M3990 4741 c-24 -60 23 -101 75 -67 35 23 33 61 -5 81 -42 22 -56 19
-70 -14z"/>
<path d="M3957 4720 c-8 -37 -2 -52 26 -69 l22 -14 -22 25 c-19 20 -21 29 -14
56 5 18 6 32 2 32 -5 0 -11 -13 -14 -30z"/>
<path d="M4028 4633 c7 -3 16 -2 19 1 4 3 -2 6 -13 5 -11 0 -14 -3 -6 -6z"/>
<path d="M3633 4129 c-6 -6 -19 -12 -29 -14 -11 -2 -20 -4 -22 -4 -14 -3 32
-31 50 -31 23 1 23 1 3 16 -19 16 -19 16 5 10 14 -3 20 -3 13 0 -7 3 -9 12 -6
20 6 17 1 18 -14 3z"/>
<path d="M3690 4090 c-8 -5 -11 -12 -7 -16 4 -4 15 0 24 9 18 18 8 23 -17 7z"/>
<path d="M3728 4058 c5 -5 16 -8 23 -6 8 3 3 7 -10 11 -17 4 -21 3 -13 -5z"/>
<path d="M3598 4053 c12 -2 30 -2 40 0 9 3 -1 5 -23 4 -22 0 -30 -2 -17 -4z"/>
<path d="M3674 4048 c12 -7 21 -7 28 0 6 6 0 10 -18 10 -23 0 -24 -2 -10 -10z"/>
<path d="M3910 3836 c0 -2 8 -10 18 -17 15 -13 16 -12 3 4 -13 16 -21 21 -21
13z"/>
<path d="M4040 2127 c-72 -36 -60 -158 18 -182 17 -5 29 1 52 24 42 41 42 100
1 142 -33 33 -36 34 -71 16z"/>
<path d="M4530 2085 c0 -43 1 -45 28 -45 16 0 36 8 45 18 34 37 14 72 -40 72
-32 0 -33 -1 -33 -45z"/>
<path d="M3580 2075 c0 -43 1 -45 28 -45 16 0 36 8 45 18 34 37 14 72 -40 72
-32 0 -33 -1 -33 -45z"/>
<path d="M3366 2095 c-39 -39 -27 -142 20 -164 37 -16 52 -14 79 14 33 32 35
100 4 139 -24 30 -78 36 -103 11z"/>
<path d="M3130 2073 c-29 -37 -24 -118 10 -145 63 -51 138 19 116 107 -17 66
-88 87 -126 38z"/>
<path d="M2896 1993 c4 -49 10 -92 15 -97 12 -13 74 2 94 24 9 10 20 38 22 62
4 36 1 47 -21 71 -20 22 -34 27 -71 27 l-45 0 6 -87z"/>
<path d="M6006 2041 c-52 -58 -33 -163 31 -169 46 -5 71 13 83 59 13 48 -1
104 -30 119 -29 16 -65 12 -84 -9z"/>
<path d="M6226 2024 c-3 -9 -6 -31 -6 -50 0 -31 3 -34 29 -34 36 0 61 23 61
55 0 39 -71 64 -84 29z"/>
<path d="M2312 2020 c-40 -17 -54 -87 -27 -140 26 -51 101 -53 123 -5 26 56 4
137 -40 149 -28 7 -27 7 -56 -4z"/>
</g>
</svg>
